<?xml version="1.0" encoding="UTF-8"?>
<svg version="1.1" xmlns="http://www.w3.org/2000/svg" width="180" height="180">
<path d="M0 0 C59.4 0 118.8 0 180 0 C180 59.4 180 118.8 180 180 C120.6 180 61.2 180 0 180 C0 120.6 0 61.2 0 0 Z " fill="#FA0101" transform="translate(0,0)"/>
<path d="M0 0 C59.07 0 118.14 0 179 0 C175.93008243 3.06991757 172.9364976 4.75233596 169.12109375 6.66015625 C168.4413147 7.00630981 167.76153564 7.35246338 167.06115723 7.70910645 C165.60805193 8.44868123 164.15369556 9.18580216 162.69821167 9.92068481 C158.91733772 11.83028671 155.14590018 13.75829455 151.375 15.6875 C150.63749008 16.06451553 149.89998016 16.44153107 149.14012146 16.82997131 C142.96684384 19.99551067 136.89531175 23.31916635 130.86010742 26.73999023 C125.57988294 29.7193204 120.19639945 32.43530752 114.75366211 35.10375977 C109.80198954 37.54963272 105.04056602 40.22787256 100.26831055 43.00927734 C96.10558846 45.41549533 91.8744584 47.62394229 87.5625 49.75 C72.37541462 57.24064916 57.42528602 65.17674913 42.58959961 73.33862305 C33.77766496 78.16557784 24.85772418 82.77863312 15.92089844 87.36865234 C14.83196289 87.92891113 13.74302734 88.48916992 12.62109375 89.06640625 C11.6561499 89.56084229 10.69120605 90.05527832 9.69702148 90.56469727 C7.85611596 91.54439162 6.04806422 92.58776728 4.27368164 93.68334961 C2 95 2 95 0 95 C0 63.65 0 32.3 0 0 Z " fill="#FDFDFD" transform="translate(0,0)"/>
<path d="M0 0 C0.33 0 0.66 0 1 0 C1 57.75 1 115.5 1 175 C-6.79820446 172.00069059 -14.11100959 169.03879347 -21.609375 165.51171875 C-25.05259086 163.97655223 -28.51889949 162.66049763 -32.0625 161.375 C-41.5417841 157.9300289 -50.75341262 153.86749405 -60.01013184 149.87130737 C-70.96380049 145.14306712 -81.97606312 140.5614564 -93 136 C-94.20994629 135.49903809 -95.41989258 134.99807617 -96.66650391 134.48193359 C-101.72894957 132.38592784 -106.79156953 130.29034822 -111.85522461 128.19726562 C-115.23727156 126.79927364 -118.6188345 125.40012242 -122 124 C-123.49817261 123.37967896 -123.49817261 123.37967896 -125.02661133 122.74682617 C-132.77023877 119.53117049 -140.4820263 116.24341019 -148.1875 112.9375 C-149.99637695 112.1630957 -149.99637695 112.1630957 -151.84179688 111.37304688 C-157.60416033 108.90256336 -163.35828944 106.42004424 -169.07128906 103.8371582 C-172.33171242 102.42196938 -175.66030003 101.21443635 -179 100 C-179 97.03 -179 94.06 -179 91 C-172.34797342 93.12945973 -165.9323916 95.59600109 -159.5 98.3125 C-158.49477295 98.73402344 -157.4895459 99.15554687 -156.45385742 99.58984375 C-145.60827862 104.14578414 -134.78154904 108.74705881 -123.95703125 113.3527832 C-122.92191658 113.79295525 -122.92191658 113.79295525 -121.8658905 114.24201965 C-119.98243076 115.04307449 -118.09923853 115.84475821 -116.21606445 116.64648438 C-113.48821118 117.79453103 -110.7523966 118.91240912 -108 120 C-107.7321167 119.40993164 -107.4642334 118.81986328 -107.18823242 118.21191406 C-105.98826517 115.97815542 -104.73387987 114.43726575 -102.98828125 112.609375 C-102.39917969 111.98675781 -101.81007813 111.36414063 -101.203125 110.72265625 C-100.57921875 110.07167969 -99.9553125 109.42070313 -99.3125 108.75 C-98.02643704 107.39148278 -96.74126855 106.03211819 -95.45703125 104.671875 C-94.87928955 104.0644043 -94.30154785 103.45693359 -93.70629883 102.83105469 C-91.3892008 100.34454229 -89.17026764 97.77859372 -86.953125 95.203125 C-83.51597638 91.32602136 -79.95117039 87.56673351 -76.40991211 83.78491211 C-66.40166369 73.1192439 -66.40166369 73.1192439 -56.6875 62.1875 C-52.63746868 57.50986092 -48.37523567 53.02928142 -44.14038086 48.51977539 C-40.40542176 44.53424245 -36.7480342 40.50410257 -33.234375 36.3203125 C-32 35 -32 35 -30 34 C-31.66686393 38.99997398 -34.5358659 43.05709349 -37.4609375 47.38671875 C-38.27964828 48.61054008 -38.27964828 48.61054008 -39.11489868 49.85908508 C-40.86393965 52.47148714 -42.61930966 55.07956328 -44.375 57.6875 C-45.51735634 59.39098826 -46.65928735 61.09476183 -47.80078125 62.79882812 C-50.0746582 66.1923215 -52.35083482 69.58425478 -54.62866211 72.97509766 C-59.36205462 80.02495467 -64.06695179 87.0937774 -68.77429199 94.16104126 C-70.34014515 96.51032782 -71.90974367 98.85709355 -73.48046875 101.203125 C-79.41724365 110.07481716 -85.26703537 118.99519193 -91 128 C-90.46342773 128.17233154 -89.92685547 128.34466309 -89.37402344 128.5222168 C-83.57758439 130.41499535 -77.90609193 132.5367509 -72.25 134.8125 C-71.36876465 135.16578369 -70.4875293 135.51906738 -69.57958984 135.88305664 C-63.84123146 138.20352305 -58.2240166 140.70745694 -52.62890625 143.35546875 C-47.65601893 145.60905924 -42.61500804 147.68224026 -37.5625 149.75 C-36.61391113 150.13921631 -35.66532227 150.52843262 -34.68798828 150.92944336 C-30.1619829 152.7708235 -25.64752562 154.48385175 -21 156 C-20.94739014 155.20078125 -20.89478027 154.4015625 -20.84057617 153.578125 C-20.30439766 145.98810897 -19.450283 138.52088966 -18.3125 131 C-16.97970372 121.95453706 -15.70702242 112.90399695 -14.5078125 103.83984375 C-14.37841782 102.8621402 -14.24902313 101.88443665 -14.1157074 100.87710571 C-13.5957578 96.94123275 -13.07700628 93.00521202 -12.56265259 89.06860352 C-11.20626891 78.68896768 -9.7692119 68.33597208 -8.09863281 58.00202942 C-6.6932513 49.23396311 -5.56484967 40.4323638 -4.4375 31.625 C-4.0214867 28.38776557 -3.60368556 25.15077024 -3.18359375 21.9140625 C-3.0343898 20.76445038 -3.0343898 20.76445038 -2.88217163 19.59161377 C-2.02352001 13.04438414 -1.04785595 6.51983098 0 0 Z " fill="#FBF2EF" transform="translate(179,5)"/>
<path d="M0 0 C0.33 0 0.66 0 1 0 C1 57.75 1 115.5 1 175 C-6.7669756 172.01270169 -14.04529204 169.07612136 -21.5078125 165.5546875 C-26.83299065 163.18397061 -32.2877969 161.19610218 -37.76171875 159.19921875 C-41 158 -41 158 -43 157 C-43 155.68 -43 154.36 -43 153 C-41.35425434 152.97311849 -39.70838587 152.95365877 -38.0625 152.9375 C-37.14597656 152.92589844 -36.22945312 152.91429687 -35.28515625 152.90234375 C-33 153 -33 153 -32 154 C-30.15400312 154.39454223 -28.29774178 154.74176866 -26.4375 155.0625 C-24.625 155.375 -22.8125 155.6875 -21 156 C-20.94739014 155.20078125 -20.89478027 154.4015625 -20.84057617 153.578125 C-20.30439766 145.98810897 -19.450283 138.52088966 -18.3125 131 C-16.97970372 121.95453706 -15.70702242 112.90399695 -14.5078125 103.83984375 C-14.37841782 102.8621402 -14.24902313 101.88443665 -14.1157074 100.87710571 C-13.5957578 96.94123275 -13.07700628 93.00521202 -12.56265259 89.06860352 C-11.20626891 78.68896768 -9.7692119 68.33597208 -8.09863281 58.00202942 C-6.6932513 49.23396311 -5.56484967 40.4323638 -4.4375 31.625 C-4.0214867 28.38776557 -3.60368556 25.15077024 -3.18359375 21.9140625 C-3.08412445 21.14765442 -2.98465515 20.38124634 -2.88217163 19.59161377 C-2.02352001 13.04438414 -1.04785595 6.51983098 0 0 Z " fill="#FBFAFA" transform="translate(179,5)"/>
<path d="M0 0 C1.67343448 -0.29749946 3.34305915 -0.62127066 5 -1 C5.495 -0.505 5.495 -0.505 6 0 C6.66 -0.33 7.32 -0.66 8 -1 C8.99 0.485 8.99 0.485 10 2 C11.96361864 2.57748803 11.96361864 2.57748803 14.125 2.6875 C15.40375 2.790625 16.6825 2.89375 18 3 C18 3.66 18 4.32 18 5 C16.35 5 14.7 5 13 5 C13 5.66 13 6.32 13 7 C14.32 7 15.64 7 17 7 C17 7.66 17 8.32 17 9 C15.68 9 14.36 9 13 9 C13 9.99 13 10.98 13 12 C14.65 12 16.3 12 18 12 C18 12.66 18 13.32 18 14 C19.32 14 20.64 14 22 14 C22 11.03 22 8.06 22 5 C21.01 5 20.02 5 19 5 C19 4.34 19 3.68 19 3 C21.97 3 24.94 3 28 3 C27.73958333 5.24609375 27.47916667 7.4921875 27.21875 9.73828125 C26.95186537 12.11896555 26.95186537 12.11896555 27 15 C23.78548731 16.60725635 20.56387464 16.05748185 17 16 C17 16.66 17 17.32 17 18 C13.62294375 17.46274105 10.303314 16.88935377 7 16 C7 15.01 7 14.02 7 13 C5.35 13.33 3.7 13.66 2 14 C2 10.37 2 6.74 2 3 C2.66 3 3.32 3 4 3 C4.495 4.485 4.495 4.485 5 6 C5.66 5.01 6.32 4.02 7 3 C3.41672247 1.99782936 3.41672247 1.99782936 0 3 C0 3.66 0 4.32 0 5 C-1.32 5.33 -2.64 5.66 -4 6 C-4.33 7.98 -4.66 9.96 -5 12 C-3.35 12 -1.7 12 0 12 C0 12.66 0 13.32 0 14 C-8.01659634 15.12513633 -15.92138585 15.09579384 -24 15 C-24 15.99 -24 16.98 -24 18 C-25.32 18 -26.64 18 -28 18 C-28 17.01 -28 16.02 -28 15 C-31.63 15 -35.26 15 -39 15 C-39.33 14.01 -39.66 13.02 -40 12 C-40.7425 12.33 -41.485 12.66 -42.25 13 C-45 14 -45 14 -49 14 C-49 12.35 -49 10.7 -49 9 C-49.66 9 -50.32 9 -51 9 C-51.33 10.65 -51.66 12.3 -52 14 C-52.99 13.34 -53.98 12.68 -55 12 C-55.33 12.66 -55.66 13.32 -56 14 C-56.66 14 -57.32 14 -58 14 C-57.34 10.37 -56.68 6.74 -56 3 C-54 4 -54 4 -52 7 C-51.34 5.68 -50.68 4.36 -50 3 C-49.71125 3.598125 -49.4225 4.19625 -49.125 4.8125 C-47.95257974 7.19327792 -47.95257974 7.19327792 -46 10 C-45.01 7.69 -44.02 5.38 -43 3 C-40.27573689 5.35277269 -39.1858237 7.62496331 -38 11 C-37.67 8.03 -37.34 5.06 -37 2 C-35.700625 2.020625 -34.40125 2.04125 -33.0625 2.0625 C-29.02353246 2.06884061 -25.13133037 1.72297759 -21.12890625 1.21484375 C-19 1 -19 1 -15.3125 1.0625 C-11.98151075 1.17079823 -11.98151075 1.17079823 -8.9375 -0.0625 C-5.49345716 -1.16166261 -3.50576534 -0.67131677 0 0 Z " fill="#C91D21" transform="translate(69,154)"/>
<path d="M0 0 C0.99 0.33 1.98 0.66 3 1 C2.34 2.32 1.68 3.64 1 5 C1.53657227 5.17233154 2.07314453 5.34466309 2.62597656 5.5222168 C8.42241561 7.41499535 14.09390807 9.5367509 19.75 11.8125 C20.63123535 12.16578369 21.5124707 12.51906738 22.42041016 12.88305664 C28.15121082 15.20046688 33.76220135 17.6980515 39.34765625 20.34765625 C47.74566741 24.2310867 56.42073212 27.54149347 65 31 C65 31.33 65 31.66 65 32 C63.33388095 32.042721 61.66617115 32.04063832 60 32 C59.67 31.67 59.34 31.34 59 31 C57.31816052 30.76712992 55.6287584 30.58735834 53.9375 30.4375 C53.01839844 30.35371094 52.09929687 30.26992187 51.15234375 30.18359375 C50.08693359 30.09271484 50.08693359 30.09271484 49 30 C49 30.99 49 31.98 49 33 C42.21096813 31.11495458 35.81281879 28.78986561 29.375 25.9375 C27.55265797 25.14191164 25.72971487 24.34769897 23.90625 23.5546875 C22.95492187 23.14057617 22.00359375 22.72646484 21.0234375 22.29980469 C14.62503303 19.54906943 8.17679597 16.9148668 1.73193359 14.27514648 C0.76594238 13.87626221 -0.20004883 13.47737793 -1.1953125 13.06640625 C-2.47946045 12.5396228 -2.47946045 12.5396228 -3.78955078 12.00219727 C-6 11 -6 11 -9 9 C-7.41676312 8.972807 -5.83338938 8.95351694 -4.25 8.9375 C-2.92742187 8.92009766 -2.92742187 8.92009766 -1.578125 8.90234375 C1.64406644 9.02439646 4.12154659 9.5607733 7 11 C7.33 10.67 7.66 10.34 8 10 C7.01 9.67 6.02 9.34 5 9 C5 8.34 5 7.68 5 7 C3.35 6.67 1.7 6.34 0 6 C0 4.02 0 2.04 0 0 Z " fill="#FCE7E3" transform="translate(87,128)"/>
<path d="M0 0 C1.67343448 -0.29749946 3.34305915 -0.62127066 5 -1 C5.33 -0.67 5.66 -0.34 6 0 C6.66 -0.33 7.32 -0.66 8 -1 C8.66 -0.01 9.32 0.98 10 2 C11.96361864 2.57748803 11.96361864 2.57748803 14.125 2.6875 C15.40375 2.790625 16.6825 2.89375 18 3 C18 3.66 18 4.32 18 5 C16.35 5 14.7 5 13 5 C13 5.66 13 6.32 13 7 C14.32 7 15.64 7 17 7 C17 7.66 17 8.32 17 9 C15.68 9 14.36 9 13 9 C13 9.99 13 10.98 13 12 C14.65 12 16.3 12 18 12 C18 12.66 18 13.32 18 14 C19.32 14 20.64 14 22 14 C22 11.03 22 8.06 22 5 C21.01 5 20.02 5 19 5 C19 4.34 19 3.68 19 3 C21.97 3 24.94 3 28 3 C27.73958333 5.24609375 27.47916667 7.4921875 27.21875 9.73828125 C26.95186537 12.11896555 26.95186537 12.11896555 27 15 C23.78548731 16.60725635 20.56387464 16.05748185 17 16 C17 16.66 17 17.32 17 18 C13.62294375 17.46274105 10.303314 16.88935377 7 16 C7 15.01 7 14.02 7 13 C5.35 13.33 3.7 13.66 2 14 C2 10.37 2 6.74 2 3 C2.66 3 3.32 3 4 3 C4.33 3.99 4.66 4.98 5 6 C5.66 5.01 6.32 4.02 7 3 C2.70040683 1.61303446 -0.36017462 2.46030329 -4.5859375 3.52734375 C-7.78796123 4.1542772 -10.80918105 4.06112223 -14.0546875 3.875 C-16.32936578 3.85831909 -16.32936578 3.85831909 -19 6 C-18.328125 4.11328125 -18.328125 4.11328125 -17 2 C-11.38792254 -0.54010695 -6.00457692 -1.42966117 0 0 Z " fill="#E00909" transform="translate(69,154)"/>
<path d="M0 0 C1.32 0 2.64 0 4 0 C4.33 1.32 4.66 2.64 5 4 C5.99 4 6.98 4 8 4 C8.92844389 8.33273814 8.92844389 11.66726186 8 16 C7.01 16 6.02 16 5 16 C5.33 17.98 5.66 19.96 6 22 C7.32 22.33 8.64 22.66 10 23 C10 23.66 10 24.32 10 25 C11.32 25.33 12.64 25.66 14 26 C13.01 26.99 12.02 27.98 11 29 C10.67 28.34 10.34 27.68 10 27 C7.66255706 26.53193355 5.30260921 26.17330206 2.9375 25.875 C1.64714844 25.70742187 0.35679688 25.53984375 -0.97265625 25.3671875 C-1.97167969 25.24601562 -2.97070312 25.12484375 -4 25 C-4 24.34 -4 23.68 -4 23 C-4.66 23 -5.32 23 -6 23 C-6 21.02 -6 19.04 -6 17 C-4.68 17.33 -3.36 17.66 -2 18 C-2.33 16.68 -2.66 15.36 -3 14 C-4.98 14.99 -4.98 14.99 -7 16 C-7 15.34 -7 14.68 -7 14 C-6.34 14 -5.68 14 -5 14 C-5.33 12.02 -5.66 10.04 -6 8 C-5.01 7.67 -4.02 7.34 -3 7 C-2.67 6.01 -2.34 5.02 -2 4 C-1.34 4 -0.68 4 0 4 C0 2.68 0 1.36 0 0 Z " fill="#F9FBFA" transform="translate(82,112)"/>
<path d="M0 0 C0 3.41735666 -0.58920331 4.26768707 -2.4309082 7.05664062 C-2.96178543 7.86758179 -3.49266266 8.67852295 -4.03962708 9.51403809 C-4.62080795 10.38596802 -5.20198883 11.25789795 -5.80078125 12.15625 C-6.39295944 13.05492798 -6.98513763 13.95360596 -7.59526062 14.8795166 C-8.85052869 16.78137224 -10.1091541 18.68101553 -11.37084961 20.57861328 C-13.30146487 23.48339666 -15.22088397 26.39532981 -17.13867188 29.30859375 C-18.35871798 31.15408035 -19.57940021 32.99914661 -20.80078125 34.84375 C-21.37588943 35.71567993 -21.95099762 36.58760986 -22.54353333 37.48596191 C-23.08386703 38.29690308 -23.62420074 39.10784424 -24.1809082 39.94335938 C-24.65389847 40.65600952 -25.12688873 41.36865967 -25.61421204 42.10290527 C-26.94669534 43.92702781 -28.35793721 45.45387893 -30 47 C-30.125 40.25 -30.125 40.25 -29 38 C-28.01 38 -27.02 38 -26 38 C-25.67 37.01 -25.34 36.02 -25 35 C-25.66 34.34 -26.32 33.68 -27 33 C-28.98 34.98 -30.96 36.96 -33 39 C-33.66 38.67 -34.32 38.34 -35 38 C-34.56244385 37.5373877 -34.1248877 37.07477539 -33.67407227 36.59814453 C-22.77627495 25.08342714 -22.77627495 25.08342714 -12.10546875 13.359375 C-9.56718338 10.51498843 -7.00382367 7.69407451 -4.4375 4.875 C-3.16712891 3.47894531 -3.16712891 3.47894531 -1.87109375 2.0546875 C-1.25363281 1.37664063 -0.63617188 0.69859375 0 0 Z " fill="#F9E8E5" transform="translate(148,39)"/>
<path d="M0 0 C0.33 0 0.66 0 1 0 C0.44917467 10.14402395 -0.71915232 20.11265827 -2.15673828 30.16235352 C-2.5039316 32.58999046 -2.84431291 35.01851133 -3.18359375 37.44726562 C-3.40325962 39.00786691 -3.62329781 40.56841585 -3.84375 42.12890625 C-3.99535583 43.20550255 -3.99535583 43.20550255 -4.15002441 44.30384827 C-4.66480471 47.89443012 -5.24423367 51.45195317 -6 55 C-11.7693614 54.40414792 -16.61661536 52.23012403 -21.875 49.9375 C-22.75414062 49.56044922 -23.63328125 49.18339844 -24.5390625 48.79492188 C-26.69531564 47.86913928 -28.84876979 46.93738089 -31 46 C-27.83907299 45.11098928 -26.15770304 45.11189602 -23 46 C-21.68 46 -20.36 46 -19 46 C-18.67 46.66 -18.34 47.32 -18 48 C-16.35 48 -14.7 48 -13 48 C-12.01 44.7 -11.02 41.4 -10 38 C-8.68 38 -7.36 38 -6 38 C-5.34 32.72 -4.68 27.44 -4 22 C-3.34 22 -2.68 22 -2 22 C-2.020625 20.741875 -2.04125 19.48375 -2.0625 18.1875 C-2.0625 4.125 -2.0625 4.125 0 0 Z " fill="#E41012" transform="translate(164,106)"/>
<path d="M0 0 C6.11893423 0.56656798 11.32363807 3.10651129 16.875 5.5625 C17.84953125 5.98724609 18.8240625 6.41199219 19.828125 6.84960938 C22.22144765 7.89375504 24.61188014 8.94402214 27 10 C26.01 10.66 25.02 11.32 24 12 C20.3125 11.125 20.3125 11.125 17 10 C17 9.34 17 8.68 17 8 C14.07120629 8.62759865 11.63904371 9.58622659 9 11 C9.66 12.32 10.32 13.64 11 15 C10.34 15 9.68 15 9 15 C8.01 16.485 8.01 16.485 7 18 C6.34 17.67 5.68 17.34 5 17 C5.66 16.01 6.32 15.02 7 14 C4.03 14 1.06 14 -2 14 C-2 14.66 -2 15.32 -2 16 C-1.01 16 -0.02 16 1 16 C1 18.97 1 21.94 1 25 C-0.32 25 -1.64 25 -3 25 C-3 24.34 -3 23.68 -3 23 C-4.65 23 -6.3 23 -8 23 C-8 22.01 -8 21.02 -8 20 C-6.68 20 -5.36 20 -4 20 C-4 19.34 -4 18.68 -4 18 C-5.32 18 -6.64 18 -8 18 C-8 17.34 -8 16.68 -8 16 C-6.35 16 -4.7 16 -3 16 C-3 15.34 -3 14.68 -3 14 C-5.31 14 -7.62 14 -10 14 C-8.1032244 12.0207559 -6.61460301 11.06766272 -3.87109375 10.765625 C-0.06528882 10.74054556 3.32416938 10.9640841 7 12 C7.33 11.34 7.66 10.68 8 10 C8.66 10 9.32 10 10 10 C10 9.34 10 8.68 10 8 C9.01 8.33 8.02 8.66 7 9 C6.34 7.02 5.68 5.04 5 3 C3.35 2.67 1.7 2.34 0 2 C0 1.34 0 0.68 0 0 Z " fill="#F4070A" transform="translate(90,143)"/>
<path d="M0 0 C7.458647 2.32318513 14.60429765 5.27010373 21.78649902 8.32568359 C25.23087878 9.79084724 28.67972108 11.24541067 32.12890625 12.69921875 C32.80871552 12.98590424 33.48852478 13.27258972 34.18893433 13.56796265 C39.84841565 15.94887627 45.53906331 18.24527073 51.25 20.5 C57.93063018 23.14185487 64.49265033 25.95239124 71 29 C72.72739796 29.77478879 74.45648317 30.54583051 76.1875 31.3125 C76.92355469 31.63863281 77.65960938 31.96476562 78.41796875 32.30078125 C78.94003906 32.53152344 79.46210937 32.76226562 80 33 C78.0625 33.5625 78.0625 33.5625 76 34 C75.67 33.67 75.34 33.34 75 33 C72.68530416 32.5103528 70.36205164 32.10099 68.03125 31.6953125 C67.3609375 31.46585938 66.690625 31.23640625 66 31 C65.505 29.515 65.505 29.515 65 28 C63.35 28 61.7 28 60 28 C60 27.34 60 26.68 60 26 C58.35 26 56.7 26 55 26 C54.505 25.01 54.505 25.01 54 24 C51.93588413 23.31196138 49.86928529 22.63076185 47.79296875 21.98046875 C44.60956501 20.86293821 41.615904 19.49705785 38.5625 18.0625 C28.9685204 13.57714759 20.56871786 10.38010749 10 9 C10 9.66 10 10.32 10 11 C8.68 11 7.36 11 6 11 C6.33 9.02 6.66 7.04 7 5 C4.69 4.01 2.38 3.02 0 2 C0 1.34 0 0.68 0 0 Z " fill="#CE1C1F" transform="translate(10,109)"/>
<path d="M0 0 C4.62 0 9.24 0 14 0 C13.67 1.65 13.34 3.3 13 5 C13.99 5 14.98 5 16 5 C16 4.01 16 3.02 16 2 C17.32 2 18.64 2 20 2 C19.67 2.99 19.34 3.98 19 5 C21.05656782 9.11313564 27.75307288 10.28608049 31.9375 11.6875 C33.29068724 12.12802005 34.64451156 12.56661254 36 13 C36 13.66 36 14.32 36 15 C37.65 15 39.3 15 41 15 C41 15.66 41 16.32 41 17 C41.68964844 17.12117188 42.37929688 17.24234375 43.08984375 17.3671875 C49.09799013 18.43859906 55.05175157 19.63482823 61 21 C60.34 22.32 59.68 23.64 59 25 C54.72973494 24.33340233 50.97211673 22.86255397 47.03125 21.15625 C46.36177841 20.87089386 45.69230682 20.58553772 45.00254822 20.29153442 C42.83307174 19.36553245 40.66653773 18.43285425 38.5 17.5 C37.01198104 16.86334653 35.52378028 16.22711781 34.03540039 15.59130859 C30.36373319 14.021632 26.69435615 12.4466843 23.0256958 10.86999512 C20.06926506 9.60026829 17.11082799 8.33524589 14.15234375 7.0703125 C9.43283283 5.05165179 4.71556737 3.02785491 0 1 C0 0.67 0 0.34 0 0 Z " fill="#CF2126" transform="translate(12,100)"/>
<path d="M0 0 C2.31 0 4.62 0 7 0 C7 0.66 7 1.32 7 2 C5.35 2 3.7 2 2 2 C2 2.66 2 3.32 2 4 C3.32 4 4.64 4 6 4 C6 4.66 6 5.32 6 6 C4.68 6 3.36 6 2 6 C2 6.99 2 7.98 2 9 C3.65 9 5.3 9 7 9 C7 9.66 7 10.32 7 11 C8.32 11 9.64 11 11 11 C11 8.03 11 5.06 11 2 C10.01 2 9.02 2 8 2 C8 1.34 8 0.68 8 0 C10.97 0 13.94 0 17 0 C16.73958333 2.24609375 16.47916667 4.4921875 16.21875 6.73828125 C15.95186537 9.11896555 15.95186537 9.11896555 16 12 C12.78548731 13.60725635 9.56387464 13.05748185 6 13 C6 13.66 6 14.32 6 15 C2.28111761 14.49287967 -0.73454239 13.88391785 -4 12 C-2.68 11.67 -1.36 11.34 0 11 C0 7.37 0 3.74 0 0 Z " fill="#DC1716" transform="translate(80,157)"/>
<path d="M0 0 C6.0416439 1.85816883 11.80557692 4.36430405 17.625 6.8125 C18.64207031 7.23853516 19.65914062 7.66457031 20.70703125 8.10351562 C22.77051409 8.96787694 24.83366262 9.83303678 26.89648438 10.69897461 C29.9733553 11.98883027 33.05266002 13.2726901 36.1328125 14.5546875 C41.51084557 16.79399451 46.88196842 19.04933788 52.25 21.3125 C53.10207031 21.67150391 53.95414063 22.03050781 54.83203125 22.40039062 C56.88810994 23.26671591 58.9440993 24.13325242 61 25 C61 25.33 61 25.66 61 26 C58.36 26 55.72 26 53 26 C53 25.01 53 24.02 53 23 C51.02 23 49.04 23 47 23 C46.505 22.01 46.505 22.01 46 21 C44.39125 21.12375 44.39125 21.12375 42.75 21.25 C39 21 39 21 36.5625 19.125 C35 17 35 17 35 15 C32.36 15 29.72 15 27 15 C27 14.01 27 13.02 27 12 C24.36 12 21.72 12 19 12 C18.67 11.34 18.34 10.68 18 10 C15.97536745 9.34786708 15.97536745 9.34786708 14 9 C14 8.34 14 7.68 14 7 C13.00419922 6.80083984 13.00419922 6.80083984 11.98828125 6.59765625 C7.65885417 5.73177083 3.32942708 4.86588542 -1 4 C-0.67 2.68 -0.34 1.36 0 0 Z " fill="#DB181E" transform="translate(118,154)"/>
<path d="M0 0 C0.495 0.99 0.495 0.99 1 2 C-0.3967121 4.7934242 -1.99413085 4.96442959 -4.875 6.0625 C-5.75929687 6.40410156 -6.64359375 6.74570312 -7.5546875 7.09765625 C-9.35847791 7.7632722 -11.1759841 8.3919947 -13 9 C-13 9.66 -13 10.32 -13 11 C-13.99 11.66 -14.98 12.32 -16 13 C-16.72382467 15.05925139 -16.72382467 15.05925139 -17 17 C-18.65 16.34 -20.3 15.68 -22 15 C-22 15.66 -22 16.32 -22 17 C-23.56159059 17.48212214 -25.12431928 17.96055873 -26.6875 18.4375 C-27.55761719 18.70433594 -28.42773438 18.97117187 -29.32421875 19.24609375 C-31.87025921 19.96344529 -34.4003423 20.517541 -37 21 C-37.33 21.99 -37.66 22.98 -38 24 C-44.02694363 27.18404569 -44.02694363 27.18404569 -47.23046875 26.578125 C-48.10638672 26.29195312 -48.10638672 26.29195312 -49 26 C-48.41847168 25.69932617 -47.83694336 25.39865234 -47.23779297 25.08886719 C-33.43252648 17.94178538 -19.72244511 10.64373189 -6.10864258 3.13818359 C-4.09162228 2.04945503 -2.0559386 1.01298687 0 0 Z " fill="#E30B0C" transform="translate(81,52)"/>
<path d="M0 0 C0 1.65 0 3.3 0 5 C-2.31 4.67 -4.62 4.34 -7 4 C-7 4.66 -7 5.32 -7 6 C-7.99 6.33 -8.98 6.66 -10 7 C-11.70779973 8.62449243 -13.37550757 10.29220027 -15 12 C-17 14 -17 14 -19 15 C-18.67 15.99 -18.34 16.98 -18 18 C-25.13846154 20.33846154 -25.13846154 20.33846154 -29.5 18.625 C-30.325 18.08875 -31.15 17.5525 -32 17 C-27.29075646 13.2596405 -21.98313187 10.62555333 -16.69970703 7.79223633 C-14.87099685 6.8103506 -13.04672846 5.82054787 -11.22265625 4.83007812 C-10.07410156 4.21197266 -8.92554687 3.59386719 -7.7421875 2.95703125 C-6.6888623 2.38960205 -5.63553711 1.82217285 -4.55029297 1.23754883 C-2 0 -2 0 0 0 Z " fill="#F10504" transform="translate(32,79)"/>
<path d="M0 0 C1.00007341 3.1113395 0.87515553 4.88833588 0 8 C0 9.32 0 10.64 0 12 C-0.99 12 -1.98 12 -3 12 C-5.68767578 14.43750025 -5.68767578 14.43750025 -8 17 C-8.66 16.67 -9.32 16.34 -10 16 C-7.69 12.37 -5.38 8.74 -3 5 C-5.52264146 7.66497537 -8.0431426 10.33192282 -10.5625 13 C-11.26697266 13.74378906 -11.97144531 14.48757812 -12.69726562 15.25390625 C-16.76856354 19.5691068 -20.7350757 23.94153864 -24.57006836 28.46875 C-26 30 -26 30 -28 31 C-28 30.01 -28 29.02 -28 28 C-27.34 28 -26.68 28 -26 28 C-26 27.01 -26 26.02 -26 25 C-25.01 25 -24.02 25 -23 25 C-22.67 24.01 -22.34 23.02 -22 22 C-20.08007717 19.03284654 -19.44184294 18.14728098 -16 17 C-16 16.01 -16 15.02 -16 14 C-15.34 14 -14.68 14 -14 14 C-14 13.34 -14 12.68 -14 12 C-13.01 11.34 -12.02 10.68 -11 10 C-10.67 9.01 -10.34 8.02 -10 7 C-7.9375 6.3125 -7.9375 6.3125 -6 6 C-5.67 4.68 -5.34 3.36 -5 2 C-4.34 2.33 -3.68 2.66 -3 3 C-3 2.34 -3 1.68 -3 1 C-2.01 0.67 -1.02 0.34 0 0 Z " fill="#D61516" transform="translate(151,35)"/>
<path d="M0 0 C0.33 0 0.66 0 1 0 C1.31977382 17.17896033 0.35364498 33.31102756 -4 50 C-4.66 50 -5.32 50 -6 50 C-6.25513255 42.99235918 -5.26261112 36.40491826 -4.125 29.5 C-2.55677993 19.68272109 -1.13391709 9.87701464 0 0 Z " fill="#FEF3F1" transform="translate(174,40)"/>
<path d="M0 0 C0.33 0 0.66 0 1 0 C-0.34814526 23.801737 -4.46413154 47.44712902 -8 71 C-8.33 71 -8.66 71 -9 71 C-9 65.72 -9 60.44 -9 55 C-8.34 55 -7.68 55 -7 55 C-7 49.72 -7 44.44 -7 39 C-6.34 39 -5.68 39 -5 39 C-4.9498877 38.04109863 -4.89977539 37.08219727 -4.84814453 36.09423828 C-4.66000547 32.54159738 -4.45956454 28.98973963 -4.25537109 25.43798828 C-4.16866935 23.89976298 -4.08531909 22.36134501 -4.00537109 20.82275391 C-3.8899689 18.61301565 -3.76258707 16.40424742 -3.6328125 14.1953125 C-3.59938751 13.50567413 -3.56596252 12.81603577 -3.53152466 12.10549927 C-3.22774341 7.22774341 -3.22774341 7.22774341 -1 5 C-0.35232207 2.42938689 -0.35232207 2.42938689 0 0 Z " fill="#CE1A20" transform="translate(174,33)"/>
<path d="M0 0 C-3.62128443 2.00678401 -7.24761643 4.0042648 -10.875 6 C-12.42380859 6.85851562 -12.42380859 6.85851562 -14.00390625 7.734375 C-15.48310547 8.54648438 -15.48310547 8.54648438 -16.9921875 9.375 C-17.90339355 9.87773438 -18.81459961 10.38046875 -19.75341797 10.8984375 C-22 12 -22 12 -24 12 C-24 9.36 -24 6.72 -24 4 C-18.00537567 0.89167627 -13.74126439 -0.34868609 -7 0 C-3.86650268 -1.04449911 -3.01031744 -0.93423645 0 0 Z M-14 2 C-14.99 2.495 -14.99 2.495 -16 3 C-16 3.66 -16 4.32 -16 5 C-16.99 5.495 -16.99 5.495 -18 6 C-16.35 5.67 -14.7 5.34 -13 5 C-13.33 4.01 -13.66 3.02 -14 2 Z " fill="#FDF3F7" transform="translate(24,83)"/>
<path d="M0 0 C1.46224799 0.42423244 2.91973412 0.86490245 4.375 1.3125 C5.18710938 1.55613281 5.99921875 1.79976563 6.8359375 2.05078125 C9 3 9 3 11 6 C12.7634375 6.7115625 12.7634375 6.7115625 14.5625 7.4375 C15.696875 7.953125 16.83125 8.46875 18 9 C18.33 10.32 18.66 11.64 19 13 C16.03 12.67 13.06 12.34 10 12 C9.67 11.01 9.34 10.02 9 9 C6.03 8.67 3.06 8.34 0 8 C0 5.36 0 2.72 0 0 Z " fill="#FBF7F8" transform="translate(0,96)"/>
<path d="M0 0 C2 1 2 1 4 4 C4.66 2.68 5.32 1.36 6 0 C6.28875 0.598125 6.5775 1.19625 6.875 1.8125 C8.04742026 4.19327792 8.04742026 4.19327792 10 7 C10.99 4.69 11.98 2.38 13 0 C15.72957339 2.35735884 16.88893396 4.58133526 18 8 C18 8.99 18 9.98 18 11 C17.34 11 16.68 11 16 11 C16 10.34 16 9.68 16 9 C15.2575 9.33 14.515 9.66 13.75 10 C11 11 11 11 7 11 C7 9.35 7 7.7 7 6 C6.34 6 5.68 6 5 6 C4.67 7.65 4.34 9.3 4 11 C3.01 10.34 2.02 9.68 1 9 C0.67 9.66 0.34 10.32 0 11 C-0.66 11 -1.32 11 -2 11 C-1.34 7.37 -0.68 3.74 0 0 Z " fill="#F8C0B6" transform="translate(13,157)"/>
<path d="M0 0 C4.03837057 0.26481119 6.35406471 1.22555008 9.8125 3.25 C9.8125 3.91 9.8125 4.57 9.8125 5.25 C10.8025 5.58 11.7925 5.91 12.8125 6.25 C12.1525 7.57 11.4925 8.89 10.8125 10.25 C7.8425 9.92 4.8725 9.59 1.8125 9.25 C1.8125 8.26 1.8125 7.27 1.8125 6.25 C1.008125 5.981875 0.20375 5.71375 -0.625 5.4375 C-1.470625 5.045625 -2.31625 4.65375 -3.1875 4.25 C-3.5175 3.26 -3.8475 2.27 -4.1875 1.25 C-3.1875 0.25 -3.1875 0.25 0 0 Z " fill="#FCEFEE" transform="translate(110.1875,142.75)"/>
<path d="M0 0 C1 3 1 3 -0.4375 6.1875 C-1.2109375 7.5796875 -1.2109375 7.5796875 -2 9 C-2.66 9 -3.32 9 -4 9 C-4.1546875 10.6396875 -4.1546875 10.6396875 -4.3125 12.3125 C-5 16 -5 16 -6.4375 17.9375 C-8 19 -8 19 -10 19 C-10 19.66 -10 20.32 -10 21 C-10.66 21 -11.32 21 -12 21 C-11.67 22.32 -11.34 23.64 -11 25 C-11.99 25.33 -12.98 25.66 -14 26 C-14.33 26.66 -14.66 27.32 -15 28 C-15.99 28.33 -16.98 28.66 -18 29 C-16.57091424 25.02079009 -14.66433497 21.76373523 -12.3046875 18.26171875 C-11.58925781 17.19501953 -10.87382813 16.12832031 -10.13671875 15.02929688 C-9.38291335 13.91529633 -8.62900583 12.80136489 -7.875 11.6875 C-7.11285478 10.55432318 -6.35113164 9.42086235 -5.58984375 8.28710938 C-3.73069414 5.5219185 -1.86729186 2.75969621 0 0 Z " fill="#DA171A" transform="translate(138,56)"/>
<path d="M0 0 C0.33 0 0.66 0 1 0 C1.11690636 10.70342629 0.89912568 20.69132517 -1.5 31.1875 C-2.11464743 34.64489179 -2.41698919 38.10046396 -2.71875 41.59765625 C-3.10634655 44.90837678 -3.94665926 47.83997778 -5 51 C-5.99 50.34 -6.98 49.68 -8 49 C-7.34 49 -6.68 49 -6 49 C-5.95101562 48.22760986 -5.90203125 47.45521973 -5.8515625 46.65942383 C-5.26922459 38.26760826 -4.24286739 30.00480457 -3 21.6875 C-2.64523307 19.27482777 -2.29105058 16.86206952 -1.9375 14.44921875 C-1.77378906 13.33595215 -1.61007813 12.22268555 -1.44140625 11.07568359 C-0.91225354 7.38858967 -0.44107088 3.69856309 0 0 Z " fill="#FBD8D0" transform="translate(164,112)"/>
<path d="M0 0 C2.51236985 2.40313638 3.95013095 3.78319518 4.09765625 7.3828125 C4.08605469 8.28773438 4.07445312 9.19265625 4.0625 10.125 C4.05347656 11.03507813 4.04445313 11.94515625 4.03515625 12.8828125 C4.02355469 13.58148438 4.01195312 14.28015625 4 15 C1.73343156 12.09382458 0.25566905 9.47723736 -1 6 C-2.32 8.97 -3.64 11.94 -5 15 C-7.12508244 11.81237635 -7.5020163 9.73487777 -8 6 C-7.195625 5.731875 -6.39125 5.46375 -5.5625 5.1875 C-4.716875 4.795625 -3.87125 4.40375 -3 4 C-2.67 3.01 -2.34 2.02 -2 1 C-1.34 0.67 -0.68 0.34 0 0 Z " fill="#D51F21" transform="translate(28,152)"/>
<path d="M0 0 C0.66 0 1.32 0 2 0 C2 1.65 2 3.3 2 5 C2.7425 4.67 3.485 4.34 4.25 4 C7 3 7 3 11 3 C11.33 3.66 11.66 4.32 12 5 C15.02934491 5.65772428 15.02934491 5.65772428 18 6 C17.34 6.66 16.68 7.32 16 8 C12.875 7.625 12.875 7.625 10 7 C9.67 8.32 9.34 9.64 9 11 C8.01 11 7.02 11 6 11 C6 10.34 6 9.68 6 9 C6.66 9 7.32 9 8 9 C8 8.34 8 7.68 8 7 C3.38 7.33 -1.24 7.66 -6 8 C-5 3 -5 3 -3 1 C-2.34 1.66 -1.68 2.32 -1 3 C-0.67 2.01 -0.34 1.02 0 0 Z " fill="#EE0609" transform="translate(18,163)"/>
<path d="M0 0 C2.5 0.25 2.5 0.25 4.5 2.25 C4.84490322 6.30261287 4.80163882 7.79754176 2.5 11.25 C0 11.5625 0 11.5625 -2.5 11.25 C-4.5 9.25 -4.5 9.25 -4.75 5.75 C-4.46177779 1.71488904 -4.15174939 0.41517494 0 0 Z " fill="#FDD0C0" transform="translate(55.5,156.75)"/>
<path d="M0 0 C-0.99 1.98 -1.98 3.96 -3 6 C-3.33 6 -3.66 6 -4 6 C-4 4.35 -4 2.7 -4 1 C-4.66 1 -5.32 1 -6 1 C-5.98839844 1.78246094 -5.97679688 2.56492188 -5.96484375 3.37109375 C-5.95582031 4.38300781 -5.94679688 5.39492187 -5.9375 6.4375 C-5.92589844 7.44683594 -5.91429688 8.45617187 -5.90234375 9.49609375 C-6 12 -6 12 -7 13 C-8.99958364 13.04080783 -11.00045254 13.04254356 -13 13 C-13 12.67 -13 12.34 -13 12 C-11.35 12 -9.7 12 -8 12 C-8 11.34 -8 10.68 -8 10 C-9.65 10 -11.3 10 -13 10 C-13 8.02 -13 6.04 -13 4 C-11.35 3.67 -9.7 3.34 -8 3 C-8 2.34 -8 1.68 -8 1 C-9.32 0.67 -10.64 0.34 -12 0 C-7.66726186 -0.92844389 -4.33273814 -0.92844389 0 0 Z " fill="#C61918" transform="translate(77,156)"/>
<path d="M0 0 C5.52841154 0.39488654 9.26679168 1.43893534 14.11328125 4.0859375 C16.66407978 5.32172809 19.21050829 5.6107686 22 6 C22.99 6.66 23.98 7.32 25 8 C26.9896995 8.39013716 28.99019869 8.73202649 31 9 C31.33 9.99 31.66 10.98 32 12 C32.99 12 33.98 12 35 12 C35 12.99 35 13.98 35 15 C29.90473505 13.44311349 25.2455408 11.66872723 20.51953125 9.17578125 C16.28112275 7.19785728 11.86433577 5.66973327 7.45874023 4.10620117 C2.208644 2.208644 2.208644 2.208644 0 0 Z " fill="#FCDFD9" transform="translate(136,161)"/>
<path d="M0 0 C0 0.66 0 1.32 0 2 C-1.32 2 -2.64 2 -4 2 C-4 2.99 -4 3.98 -4 5 C-6.64 4.67 -9.28 4.34 -12 4 C-12 4.99 -12 5.98 -12 7 C-13.73030291 6.71515154 -15.45920714 6.42180062 -17.1875 6.125 C-18.15042969 5.96257812 -19.11335938 5.80015625 -20.10546875 5.6328125 C-22.91032604 5.01960483 -25.37224747 4.14333657 -28 3 C-28 2.67 -28 2.34 -28 2 C-26.44152344 1.90912109 -26.44152344 1.90912109 -24.8515625 1.81640625 C-17.82533331 1.39739546 -10.8187353 0.95460643 -3.8203125 0.18359375 C-2 0 -2 0 0 0 Z " fill="#EF0607" transform="translate(76,167)"/>
<path d="M0 0 C0.33 1.32 0.66 2.64 1 4 C0.34 4 -0.32 4 -1 4 C-0.896875 5.051875 -0.79375 6.10375 -0.6875 7.1875 C-1 11 -1 11 -3.375 13.875 C-6 16 -6 16 -8 17 C-8 18.32 -8 19.64 -8 21 C-10.31 21.99 -12.62 22.98 -15 24 C-13.65363433 21.20144932 -12.16277659 18.59794644 -10.46875 15.99609375 C-9.98792969 15.25552734 -9.50710937 14.51496094 -9.01171875 13.75195312 C-8.51285156 12.98818359 -8.01398438 12.22441406 -7.5 11.4375 C-6.75169922 10.28604492 -6.75169922 10.28604492 -5.98828125 9.11132812 C-4.00649513 6.06426556 -2.01627039 3.02440558 0 0 Z " fill="#E80F11" transform="translate(110,98)"/>
<path d="M0 0 C5 0 5 0 6.8125 1.1875 C8.42525784 3.64907776 8.4334014 5.11065736 8 8 C6.8125 9.8125 6.8125 9.8125 5 11 C3.35 11 1.7 11 0 11 C0 7.37 0 3.74 0 0 Z " fill="#FCBEB9" transform="translate(33,157)"/>
<path d="M0 0 C0 3.49336818 -0.69545146 4.39644434 -2.625 7.23046875 C-3.16640625 8.03291016 -3.7078125 8.83535156 -4.265625 9.66210938 C-5.12414062 10.91217773 -5.12414062 10.91217773 -6 12.1875 C-6.57234375 13.03248047 -7.1446875 13.87746094 -7.734375 14.74804688 C-9.15013971 16.83629982 -10.57218082 18.91997883 -12 21 C-12.99 20.34 -13.98 19.68 -15 19 C-15.66 18.67 -16.32 18.34 -17 18 C-16.43152344 17.443125 -15.86304688 16.88625 -15.27734375 16.3125 C-10.77260727 11.86040651 -6.43469324 7.34047545 -2.3125 2.53125 C-1.56874537 1.66353626 -0.8081145 0.8081145 0 0 Z " fill="#FEDDDB" transform="translate(148,39)"/>
<path d="M0 0 C2.5625 0.8125 2.5625 0.8125 4.375 1.8125 C7.68401067 3.32519059 10.95082248 3.45133225 14.5625 3.8125 C14.5625 4.8025 14.5625 5.7925 14.5625 6.8125 C11.38962467 8.39893766 8.01880032 8.22840336 4.5625 7.8125 C3 6.4375 3 6.4375 1.5625 4.8125 C-0.74738315 4.06863932 -3.08065944 3.39059297 -5.4375 2.8125 C-3.63540225 0.44131874 -3.05555946 -0.23504304 0 0 Z " fill="#F8F9F9" transform="translate(43.4375,116.1875)"/>
<path d="M0 0 C1.32 0 2.64 0 4 0 C4 0.66 4 1.32 4 2 C4.7425 1.649375 5.485 1.29875 6.25 0.9375 C9.21122875 -0.0720098 10.12062561 0.12019116 13 1 C10.40251918 2.5333805 7.79812104 4.05179668 5.1875 5.5625 C4.44951172 6.00013672 3.71152344 6.43777344 2.95117188 6.88867188 C2.23896484 7.29794922 1.52675781 7.70722656 0.79296875 8.12890625 C-0.18893433 8.70233765 -0.18893433 8.70233765 -1.19067383 9.28735352 C-3 10 -3 10 -6 9 C-5.10085301 7.48943306 -4.18003899 5.99174571 -3.25 4.5 C-2.73953125 3.6646875 -2.2290625 2.829375 -1.703125 1.96875 C-0.86007813 0.99421875 -0.86007813 0.99421875 0 0 Z " fill="#FAEFE9" transform="translate(75,48)"/>
<path d="M0 0 C1.97986082 0.11347619 3.95891598 0.2410935 5.9375 0.375 C7.03964844 0.44460937 8.14179688 0.51421875 9.27734375 0.5859375 C10.62505859 0.79089844 10.62505859 0.79089844 12 1 C12.33 1.66 12.66 2.32 13 3 C14.155 3.33 15.31 3.66 16.5 4 C17.655 4.33 18.81 4.66 20 5 C20.33 5.66 20.66 6.32 21 7 C21.99 7.33 22.98 7.66 24 8 C23.95875 7.05125 23.9175 6.1025 23.875 5.125 C24 2 24 2 26 0 C25.67 3.3 25.34 6.6 25 10 C19.2306386 9.40414792 14.38338464 7.23012403 9.125 4.9375 C7.80628906 4.37192383 7.80628906 4.37192383 6.4609375 3.79492188 C4.30468436 2.86913928 2.15123021 1.93738089 0 1 C0 0.67 0 0.34 0 0 Z " fill="#D41C1F" transform="translate(133,151)"/>
<path d="M0 0 C2.31 0 4.62 0 7 0 C7.33 0.66 7.66 1.32 8 2 C12.44500224 3.33350067 16.3318831 4.29175731 21 4 C21.33 4.99 21.66 5.98 22 7 C24.01508358 7.73323796 24.01508358 7.73323796 26 8 C26.33 9.32 26.66 10.64 27 12 C17.88241863 8.57712062 8.92501429 4.89382182 0 1 C0 0.67 0 0.34 0 0 Z " fill="#DD1419" transform="translate(95,135)"/>
<path d="M0 0 C4.62 0 9.24 0 14 0 C13.67 1.65 13.34 3.3 13 5 C13.99 5 14.98 5 16 5 C16 4.01 16 3.02 16 2 C17.32 2 18.64 2 20 2 C19.67 2.99 19.34 3.98 19 5 C19.33 5.99 19.66 6.98 20 8 C15.15888235 7.41161801 11.03928805 5.92346884 6.625 3.9375 C5.98433594 3.65583984 5.34367187 3.37417969 4.68359375 3.08398438 C3.11970341 2.39540579 1.55946059 1.69855289 0 1 C0 0.67 0 0.34 0 0 Z " fill="#E01617" transform="translate(12,100)"/>
<path d="M0 0 C0.33 0.66 0.66 1.32 1 2 C1.99 2 2.98 2 4 2 C4 4.97 4 7.94 4 11 C2.68 11 1.36 11 0 11 C0 10.34 0 9.68 0 9 C-1.65 9 -3.3 9 -5 9 C-5 8.01 -5 7.02 -5 6 C-3.68 6 -2.36 6 -1 6 C-1 5.34 -1 4.68 -1 4 C-2.32 4 -3.64 4 -5 4 C-5 3.34 -5 2.68 -5 2 C-3.35 2 -1.7 2 0 2 C0 1.34 0 0.68 0 0 Z " fill="#DD161F" transform="translate(87,157)"/>
<path d="M0 0 C-0.42410156 0.4125 -0.84820312 0.825 -1.28515625 1.25 C-5.20551025 5.11004086 -8.88081758 9.08957044 -12.421875 13.30078125 C-14 15 -14 15 -17 17 C-17 15.02 -17 13.04 -17 11 C-16.030625 10.7525 -15.06125 10.505 -14.0625 10.25 C-13.051875 9.8375 -12.04125 9.425 -11 9 C-10.25723969 7.02919843 -10.25723969 7.02919843 -10 5 C-9.01 4.34 -8.02 3.68 -7 3 C-6.67 2.01 -6.34 1.02 -6 0 C-3.50907189 -1.24546405 -2.58919267 -0.7767578 0 0 Z " fill="#DC0E18" transform="translate(96,97)"/>
<path d="M0 0 C1.32 0.99 2.64 1.98 4 3 C0.7 6.63 -2.6 10.26 -6 14 C-7.32 13.67 -8.64 13.34 -10 13 C-9.67 12.01 -9.34 11.02 -9 10 C-8.01 10.33 -7.02 10.66 -6 11 C-4.8509288 9.0745356 -4.8509288 9.0745356 -5 7 C-5 5.68 -5 4.36 -5 3 C-3.35 2.67 -1.7 2.34 0 2 C0 1.34 0 0.68 0 0 Z " fill="#E5090A" transform="translate(119,64)"/>
<path d="M0 0 C0.33 0.66 0.66 1.32 1 2 C-0.3967121 4.7934242 -1.99413085 4.96442959 -4.875 6.0625 C-5.75929688 6.40410156 -6.64359375 6.74570312 -7.5546875 7.09765625 C-9.35847791 7.7632722 -11.1759841 8.3919947 -13 9 C-13 9.66 -13 10.32 -13 11 C-17.15487723 14.24599784 -20.90551202 14.56826373 -26 15 C-23.55571911 12.24078981 -20.94082927 10.75965261 -17.67578125 9.08203125 C-16.64775391 8.55029297 -15.61972656 8.01855469 -14.56054688 7.47070312 C-13.48869141 6.92349609 -12.41683594 6.37628906 -11.3125 5.8125 C-10.22904297 5.25369141 -9.14558594 4.69488281 -8.02929688 4.11914062 C-5.35543945 2.74098504 -2.67897671 1.36817017 0 0 Z " fill="#D32123" transform="translate(81,52)"/>
<path d="M0 0 C1.98 0 3.96 0 6 0 C6.75241109 3.65456815 7.40049704 7.31733897 8 11 C7.01 10.67 6.02 10.34 5 10 C4.3125 7.9375 4.3125 7.9375 4 6 C3.34 6 2.68 6 2 6 C2 7.65 2 9.3 2 11 C1.34 11 0.68 11 0 11 C0 7.37 0 3.74 0 0 Z " fill="#E79293" transform="translate(42,157)"/>
<path d="M0 0 C0.66 0.33 1.32 0.66 2 1 C-0.05554005 2.48973986 -2.11850225 3.96665909 -4.1875 5.4375 C-4.76564453 5.85837891 -5.34378906 6.27925781 -5.93945312 6.71289062 C-9.3114132 9.09421836 -11.94505376 10.3550634 -16 11 C-16.33 11.66 -16.66 12.32 -17 13 C-19.64860427 13.59355614 -22.29197322 13.74209269 -25 14 C-20.46404253 10.43874351 -15.46490953 7.92493901 -10.375 5.25 C-9.40820312 4.73050781 -8.44140625 4.21101563 -7.4453125 3.67578125 C-6.52234375 3.18980469 -5.599375 2.70382813 -4.6484375 2.203125 C-3.80458496 1.75614258 -2.96073242 1.30916016 -2.09130859 0.84863281 C-1.05611084 0.42855957 -1.05611084 0.42855957 0 0 Z " fill="#D31B1F" transform="translate(136,23)"/>
<path d="M0 0 C0.33 0 0.66 0 1 0 C1.02909763 3.24998112 1.04683161 6.49992857 1.0625 9.75 C1.07087891 10.67039062 1.07925781 11.59078125 1.08789062 12.5390625 C1.09111328 13.42851563 1.09433594 14.31796875 1.09765625 15.234375 C1.10289307 16.05131836 1.10812988 16.86826172 1.11352539 17.70996094 C1.00299021 19.93968135 0.62055567 21.86133755 0 24 C-0.66 24 -1.32 24 -2 24 C-1.67 26.31 -1.34 28.62 -1 31 C-1.66 31 -2.32 31 -3 31 C-3.33 31.99 -3.66 32.98 -4 34 C-2.76551067 22.65320446 -1.4498719 11.32134013 0 0 Z " fill="#FBD6D0" transform="translate(174,40)"/>
<path d="M0 0 C1.00007341 3.1113395 0.87515553 4.88833588 0 8 C0 9.32 0 10.64 0 12 C-0.99 12 -1.98 12 -3 12 C-5.68767578 14.43750025 -5.68767578 14.43750025 -8 17 C-8.66 16.67 -9.32 16.34 -10 16 C-7.69 12.37 -5.38 8.74 -3 5 C-3.99 5 -4.98 5 -6 5 C-5.67 4.01 -5.34 3.02 -5 2 C-4.34 2.33 -3.68 2.66 -3 3 C-3 2.34 -3 1.68 -3 1 C-2.01 0.67 -1.02 0.34 0 0 Z " fill="#DD181B" transform="translate(151,35)"/>
<path d="M0 0 C0.66 0 1.32 0 2 0 C2.33 0.66 2.66 1.32 3 2 C5.31 2 7.62 2 10 2 C10 2.66 10 3.32 10 4 C11.98 4.66 13.96 5.32 16 6 C13 8 13 8 9.6875 7.8125 C5.98805577 6.99736822 3.21635474 5.99107674 0 4 C-0.33 3.01 -0.66 2.02 -1 1 C-0.67 0.67 -0.34 0.34 0 0 Z " fill="#F8FAFB" transform="translate(21,107)"/>
<path d="M0 0 C4 1.33333333 8 2.66666667 12 4 C12 4.99 12 5.98 12 7 C13.32 7 14.64 7 16 7 C16 7.66 16 8.32 16 9 C16.99 9.33 17.98 9.66 19 10 C16.03 9.67 13.06 9.34 10 9 C10 9.66 10 10.32 10 11 C8.68 11 7.36 11 6 11 C6.33 9.02 6.66 7.04 7 5 C4.69 4.01 2.38 3.02 0 2 C0 1.34 0 0.68 0 0 Z " fill="#E40F0F" transform="translate(10,109)"/>
<path d="M0 0 C-2.95449913 1.6735337 -5.9142018 3.33763985 -8.875 5 C-9.71675781 5.47695312 -10.55851563 5.95390625 -11.42578125 6.4453125 C-12.63427734 7.12207031 -12.63427734 7.12207031 -13.8671875 7.8125 C-14.61081543 8.23144531 -15.35444336 8.65039062 -16.12060547 9.08203125 C-18 10 -18 10 -20 10 C-19.67 9.01 -19.34 8.02 -19 7 C-18.01 6.690625 -17.02 6.38125 -16 6.0625 C-14.515 5.5365625 -14.515 5.5365625 -13 5 C-12.26735311 2.98215284 -12.26735311 2.98215284 -12 1 C-4.265625 -1.19140625 -4.265625 -1.19140625 0 0 Z " fill="#FBE5DB" transform="translate(24,83)"/>
<path d="M0 0 C0.33 0 0.66 0 1 0 C1 1.98 1 3.96 1 6 C1.66 6 2.32 6 3 6 C3.37196765 13.56334232 3.37196765 13.56334232 1.5625 15.6875 C1.046875 16.120625 0.53125 16.55375 0 17 C-0.72197162 19.60611077 -0.72197162 19.60611077 -1 22 C-1.33 22 -1.66 22 -2 22 C-1.85811015 19.45805839 -1.71160845 16.91652007 -1.5625 14.375 C-1.52318359 13.66214844 -1.48386719 12.94929688 -1.44335938 12.21484375 C-1.19690319 8.08196318 -0.76529947 4.07730976 0 0 Z " fill="#FBD2D0" transform="translate(167,90)"/>
<path d="M0 0 C0.66 0 1.32 0 2 0 C2.21792546 7.35094847 1.57688098 14.35847877 0.5 21.625 C0.35691406 22.62917969 0.21382812 23.63335937 0.06640625 24.66796875 C-0.28287565 27.11294208 -0.63842724 29.55681951 -1 32 C-1.33 32 -1.66 32 -2 32 C-2 26.72 -2 21.44 -2 16 C-1.34 16 -0.68 16 0 16 C0 10.72 0 5.44 0 0 Z " fill="#D51018" transform="translate(167,72)"/>
<path d="M0 0 C2.72957339 2.35735884 3.88893396 4.58133526 5 8 C5 8.99 5 9.98 5 11 C4.34 11 3.68 11 3 11 C3 10.34 3 9.68 3 9 C1.8553125 9.495 1.8553125 9.495 0.6875 10 C-2 11 -2 11 -5 11 C-4.39479338 7.6108429 -3.08699255 5.69569871 -1 3 C-0.67 2.01 -0.34 1.02 0 0 Z " fill="#F4BBA7" transform="translate(26,157)"/>
<path d="M0 0 C2.31 0 4.62 0 7 0 C7 0.66 7 1.32 7 2 C5.35 2 3.7 2 2 2 C2 2.66 2 3.32 2 4 C3.32 4 4.64 4 6 4 C6 4.66 6 5.32 6 6 C4.68 6 3.36 6 2 6 C2 6.99 2 7.98 2 9 C3.65 9 5.3 9 7 9 C7 9.66 7 10.32 7 11 C4.69 11 2.38 11 0 11 C0 7.37 0 3.74 0 0 Z " fill="#FDBEB6" transform="translate(80,157)"/>
<path d="M0 0 C0.8971875 0.5259375 0.8971875 0.5259375 1.8125 1.0625 C-0.14335325 2.06734204 -2.10226237 3.06623805 -4.0625 4.0625 C-5.15304688 4.619375 -6.24359375 5.17625 -7.3671875 5.75 C-10.1875 7.0625 -10.1875 7.0625 -12.1875 7.0625 C-11.8575 5.4125 -11.5275 3.7625 -11.1875 2.0625 C-2.1875 -0.9375 -2.1875 -0.9375 0 0 Z " fill="#F9EBEA" transform="translate(132.1875,23.9375)"/>
<path d="M0 0 C0.66 0 1.32 0 2 0 C2.33 0.99 2.66 1.98 3 3 C3.66 2.01 4.32 1.02 5 0 C5.66 0 6.32 0 7 0 C6.79375 0.886875 6.5875 1.77375 6.375 2.6875 C5.97449761 6.2252711 6.43316484 7.86632967 8 11 C6 11 6 11 3.875 9 C3.25625 8.34 2.6375 7.68 2 7 C2 8.32 2 9.64 2 11 C1.34 11 0.68 11 0 11 C0 7.37 0 3.74 0 0 Z " fill="#FECFCD" transform="translate(71,157)"/>
<path d="M0 0 C-4.87155196 6.61632767 -4.87155196 6.61632767 -9.125 8.0625 C-12.11242291 7.99755602 -13.43649094 7.40277856 -16 6 C-13.9021477 4.79994469 -11.7979751 3.61497017 -9.6875 2.4375 C-8.79514648 1.92413086 -8.79514648 1.92413086 -7.88476562 1.40039062 C-3.33984375 -1.11328125 -3.33984375 -1.11328125 0 0 Z " fill="#E2131F" transform="translate(112,38)"/>
<path d="M0 0 C0 0.99 0 1.98 0 3 C-0.99 3 -1.98 3 -3 3 C-3 3.66 -3 4.32 -3 5 C-4.98 5.33 -6.96 5.66 -9 6 C-9 6.66 -9 7.32 -9 8 C-9.99 8 -10.98 8 -12 8 C-10.74458443 10.51083114 -9.49936512 10.87125446 -7 12 C-8.625 12.6875 -8.625 12.6875 -11 13 C-14.25 11.5625 -14.25 11.5625 -17 10 C-13.64137949 7.29813944 -10.05348732 5.32834828 -6.25 3.3125 C-5.34701172 2.83200195 -5.34701172 2.83200195 -4.42578125 2.34179688 C-2.95211989 1.5581833 -1.47627806 0.77867267 0 0 Z " fill="#CC2927" transform="translate(17,86)"/>
<path d="M0 0 C0.33 1.32 0.66 2.64 1 4 C0.071875 4.70125 -0.85625 5.4025 -1.8125 6.125 C-4.32364698 8.17372131 -5.07892321 9.17100028 -6.5 12.25 C-6.995 13.1575 -7.49 14.065 -8 15 C-11.1875 15.875 -11.1875 15.875 -14 16 C-9.40525596 10.60117576 -4.72323727 5.28666913 0 0 Z " fill="#FED4D1" transform="translate(102,89)"/>
<path d="M0 0 C-3.33105349 2.66648371 -6.87197848 4.6669681 -10.625 6.6875 C-11.77226563 7.31011719 -12.91953125 7.93273437 -14.1015625 8.57421875 C-17 10 -17 10 -19 10 C-19 9.34 -19 8.68 -19 8 C-17.34151823 6.98648336 -15.67334039 5.98879205 -14 5 C-13.34 4.29875 -12.68 3.5975 -12 2.875 C-8.50308589 -0.40335698 -4.60075165 -0.13145005 0 0 Z " fill="#FEE7E2" transform="translate(70,58)"/>
<path d="M0 0 C0.66 0 1.32 0 2 0 C2 3.63 2 7.26 2 11 C2.66 11.33 3.32 11.66 4 12 C2.02 12 0.04 12 -2 12 C-2 11.34 -2 10.68 -2 10 C-2.99 10.33 -3.98 10.66 -5 11 C-5 9.68 -5 8.36 -5 7 C-3.02 7.99 -3.02 7.99 -1 9 C-1 9.66 -1 10.32 -1 11 C-0.34 11 0.32 11 1 11 C0.195625 9.948125 0.195625 9.948125 -0.625 8.875 C-2 6 -2 6 -1.1875 2.6875 C-0.795625 1.800625 -0.40375 0.91375 0 0 Z " fill="#D01918" transform="translate(78,157)"/>
<path d="M0 0 C1.58323688 -0.027193 3.16661062 -0.04648306 4.75 -0.0625 C6.07257813 -0.07990234 6.07257813 -0.07990234 7.421875 -0.09765625 C10.64406644 0.02439646 13.12154659 0.5607733 16 2 C15.67 3.32 15.34 4.64 15 6 C11.33827525 5.37321829 8.1181005 4.35548154 4.6875 2.9375 C3.36298828 2.39416016 3.36298828 2.39416016 2.01171875 1.83984375 C1.34785156 1.56269531 0.68398437 1.28554687 0 1 C0 0.67 0 0.34 0 0 Z " fill="#F6E3D9" transform="translate(78,137)"/>
<path d="M0 0 C2.64 0.33 5.28 0.66 8 1 C4.33997803 4.05001831 -1.07851471 8 -6 8 C-5.67 6.68 -5.34 5.36 -5 4 C-4.0409375 3.8453125 -4.0409375 3.8453125 -3.0625 3.6875 C-2.381875 3.460625 -1.70125 3.23375 -1 3 C-0.67 2.01 -0.34 1.02 0 0 Z " fill="#FBEFE7" transform="translate(94,40)"/>
<path d="M0 0 C0.66 0 1.32 0 2 0 C2 1.65 2 3.3 2 5 C2.7425 4.67 3.485 4.34 4.25 4 C7 3 7 3 11 3 C11 3.66 11 4.32 11 5 C7.39006828 6.13480527 4.0157673 6.10015767 0.25 6.0625 C-0.92046875 6.05347656 -2.0909375 6.04445312 -3.296875 6.03515625 C-4.18890625 6.02355469 -5.0809375 6.01195312 -6 6 C-5.34 4.35 -4.68 2.7 -4 1 C-3.01 1.66 -2.02 2.32 -1 3 C-0.67 2.01 -0.34 1.02 0 0 Z " fill="#CE272D" transform="translate(18,163)"/>
<path d="M0 0 C4.84111765 0.58838199 8.96071195 2.07653116 13.375 4.0625 C14.01566406 4.34416016 14.65632813 4.62582031 15.31640625 4.91601562 C16.88029659 5.60459421 18.44053941 6.30144711 20 7 C18.0625 7.5625 18.0625 7.5625 16 8 C15.67 7.67 15.34 7.34 15 7 C12.68530416 6.5103528 10.36205164 6.10099 8.03125 5.6953125 C7.3609375 5.46585938 6.690625 5.23640625 6 5 C5.67 4.01 5.34 3.02 5 2 C3.35 2 1.7 2 0 2 C0 1.34 0 0.68 0 0 Z " fill="#DC1317" transform="translate(70,135)"/>
<path d="M0 0 C1 2 1 2 0.1875 5.4375 C-1 9 -1 9 -3 12 C-5.625 12.6875 -5.625 12.6875 -8 13 C-6.40956621 7.91061189 -3.2553049 4.12543357 0 0 Z " fill="#E01718" transform="translate(119,85)"/>
<path d="M0 0 C2.51236985 2.40313638 3.95013095 3.78319518 4.09765625 7.3828125 C4.08605469 8.28773438 4.07445312 9.19265625 4.0625 10.125 C4.05347656 11.03507813 4.04445313 11.94515625 4.03515625 12.8828125 C4.02355469 13.58148438 4.01195312 14.28015625 4 15 C1.60236815 12.60236815 1.65719414 11.66726502 1.375 8.375 C1.30023437 7.55773437 1.22546875 6.74046875 1.1484375 5.8984375 C1.07496094 4.95871094 1.07496094 4.95871094 1 4 C-0.32 4 -1.64 4 -3 4 C-2.67 3.01 -2.34 2.02 -2 1 C-1.34 0.67 -0.68 0.34 0 0 Z " fill="#E00E12" transform="translate(28,152)"/>
<path d="M0 0 C0.66 0 1.32 0 2 0 C0.67726488 3.59758392 -0.9194198 6.63737135 -3.0625 9.8125 C-3.58972656 10.60269531 -4.11695312 11.39289063 -4.66015625 12.20703125 C-5.10230469 12.79871094 -5.54445313 13.39039062 -6 14 C-6.33 14 -6.66 14 -7 14 C-7.125 7.25 -7.125 7.25 -6 5 C-5.01 5 -4.02 5 -3 5 C-1.96986723 3.35178756 -0.96885372 1.68496298 0 0 Z " fill="#FCE3DF" transform="translate(125,72)"/>
<path d="M0 0 C6.45353615 2.05764921 12.7361263 4.42383482 19 7 C19 7.33 19 7.66 19 8 C16.36 8 13.72 8 11 8 C11 7.01 11 6.02 11 5 C9.02 5 7.04 5 5 5 C4.67 4.34 4.34 3.68 4 3 C1.97536745 2.34786708 1.97536745 2.34786708 0 2 C0 1.34 0 0.68 0 0 Z " fill="#C81C1C" transform="translate(160,172)"/>
<path d="M0 0 C0.78375 0.04125 1.5675 0.0825 2.375 0.125 C2.375 0.785 2.375 1.445 2.375 2.125 C1.055 2.455 -0.265 2.785 -1.625 3.125 C-1.955 5.105 -2.285 7.085 -2.625 9.125 C-0.975 9.125 0.675 9.125 2.375 9.125 C2.375 9.785 2.375 10.445 2.375 11.125 C0 11.25 0 11.25 -2.625 11.125 C-4.625 9.125 -4.625 9.125 -4.875 5.625 C-4.58138251 1.51435512 -4.25902123 0.20281053 0 0 Z " fill="#FAC4BE" transform="translate(66.625,156.875)"/>
<path d="M0 0 C4.21775732 1.35525536 8.29421322 2.90200114 12.375 4.625 C13.96441406 5.29402344 13.96441406 5.29402344 15.5859375 5.9765625 C16.38257812 6.31429687 17.17921875 6.65203125 18 7 C18 7.33 18 7.66 18 8 C15.69 8 13.38 8 11 8 C10.67 7.34 10.34 6.68 10 6 C7.95162696 5.16504893 7.95162696 5.16504893 5.5625 4.5 C1.21640091 3.21640091 1.21640091 3.21640091 -1 1 C-0.67 0.67 -0.34 0.34 0 0 Z " fill="#D42424" transform="translate(54,127)"/>
<path d="M0 0 C2.97 0 5.94 0 9 0 C9 0.66 9 1.32 9 2 C7.68 2 6.36 2 5 2 C5 4.97 5 7.94 5 11 C4.34 11 3.68 11 3 11 C3 8.03 3 5.06 3 2 C2.01 2 1.02 2 0 2 C0 1.34 0 0.68 0 0 Z " fill="#FEB8B1" transform="translate(88,157)"/>
<path d="M0 0 C0.33 0.99 0.66 1.98 1 3 C0.360625 3.78375 -0.27875 4.5675 -0.9375 5.375 C-3.22791218 8.29007004 -3.41052273 9.4079261 -3 13 C-6.465 14.485 -6.465 14.485 -10 16 C-8.31029911 12.33601701 -6.12699789 9.09167428 -3.875 5.75 C-3.15054688 4.67234375 -2.42609375 3.5946875 -1.6796875 2.484375 C-0.84824219 1.25460938 -0.84824219 1.25460938 0 0 Z " fill="#D01A1B" transform="translate(105,106)"/>
<path d="M0 0 C3.65316671 1.24976756 4.78065836 1.67098753 7 5 C3.37 5 -0.26 5 -4 5 C-4.33 4.34 -4.66 3.68 -5 3 C-3.35 2.34 -1.7 1.68 0 1 C0 0.67 0 0.34 0 0 Z " fill="#F0070A" transform="translate(13,95)"/>
<path d="M0 0 C0 0.99 0 1.98 0 3 C-1.65 3.33 -3.3 3.66 -5 4 C-5.33 4.99 -5.66 5.98 -6 7 C-12.1030303 10.22424242 -12.1030303 10.22424242 -17 9 C-11.39 6.03 -5.78 3.06 0 0 Z " fill="#D51E20" transform="translate(49,69)"/>
<path d="M0 0 C0.99 0 1.98 0 3 0 C2.67 3.96 2.34 7.92 2 12 C0.68 11.67 -0.64 11.34 -2 11 C-1.34 7.37 -0.68 3.74 0 0 Z " fill="#DE0F14" transform="translate(10,157)"/>
<path d="M0 0 C5.54050113 0.56825653 10.03715966 2.62886517 15 5 C15 5.33 15 5.66 15 6 C12.03 6.66 9.06 7.32 6 8 C5.67 6.35 5.34 4.7 5 3 C3.35 2.67 1.7 2.34 0 2 C0 1.34 0 0.68 0 0 Z " fill="#DA1518" transform="translate(90,143)"/>
<path d="M0 0 C4.455 0.99 4.455 0.99 9 2 C8.34 3.32 7.68 4.64 7 6 C3.62537285 5.45276317 1.91765 4.9451 -1 3 C-0.67 2.01 -0.34 1.02 0 0 Z " fill="#D91B23" transform="translate(64,119)"/>
<path d="M0 0 C0.99 0.33 1.98 0.66 3 1 C-5.20689655 8 -5.20689655 8 -10 8 C-10.33 7.01 -10.66 6.02 -11 5 C-7.5980513 2.90649311 -4.94727588 2.82057837 -1 3 C-0.67 2.01 -0.34 1.02 0 0 Z " fill="#FDE7E2" transform="translate(40,71)"/>
<path d="M0 0 C0.33 0.66 0.66 1.32 1 2 C-4.445 4.475 -4.445 4.475 -10 7 C-9.1875 4.0625 -9.1875 4.0625 -8 1 C-5.07175348 0.02391783 -3.04386724 -0.08226668 0 0 Z " fill="#FAE9E2" transform="translate(152,13)"/>
<path d="M0 0 C0.66 0 1.32 0 2 0 C2.33 1.98 2.66 3.96 3 6 C2.34 6 1.68 6 1 6 C1 6.99 1 7.98 1 9 C-0.32 9 -1.64 9 -3 9 C-3 8.01 -3 7.02 -3 6 C-3.66 5.67 -4.32 5.34 -5 5 C-3.35 5 -1.7 5 0 5 C0 3.35 0 1.7 0 0 Z " fill="#DC201C" transform="translate(44,163)"/>
<path d="M0 0 C2.9375 0.8125 2.9375 0.8125 6 2 C6.33 2.99 6.66 3.98 7 5 C6.01 5 5.02 5 4 5 C4 5.66 4 6.32 4 7 C2.68 7 1.36 7 0 7 C0 4.69 0 2.38 0 0 Z " fill="#F8F2EE" transform="translate(0,96)"/>
<path d="M0 0 C1.12921875 0.00580078 1.12921875 0.00580078 2.28125 0.01171875 C4.71060894 0.34105086 6.38222715 1.10440685 8.5 2.3125 C7.5 3.3125 7.5 3.3125 3.90234375 3.41015625 C2.41403133 3.4034822 0.92573568 3.39152183 -0.5625 3.375 C-1.32111328 3.37048828 -2.07972656 3.36597656 -2.86132812 3.36132812 C-4.74091871 3.3495068 -6.62046899 3.33157078 -8.5 3.3125 C-5.59734042 0.81225459 -3.83879193 -0.08545256 0 0 Z " fill="#CD100D" transform="translate(88.5,153.6875)"/>
<path d="M0 0 C0.99 0.33 1.98 0.66 3 1 C2.96744792 3.01822917 2.93489583 5.03645833 2.90234375 7.0546875 C2.87350758 9.08185404 2.87350758 9.08185404 4 11 C2.02 11 0.04 11 -2 11 C-1.85892253 9.54119891 -1.71197585 8.08296449 -1.5625 6.625 C-1.48128906 5.81289062 -1.40007813 5.00078125 -1.31640625 4.1640625 C-1 2 -1 2 0 0 Z " fill="#D22E37" transform="translate(60,157)"/>
<path d="M0 0 C2.0625 0.4375 2.0625 0.4375 4 1 C4 2.65 4 4.3 4 6 C2.0625 6.5625 2.0625 6.5625 0 7 C-1 6 -1 6 -1.125 3.5 C-1 1 -1 1 0 0 Z " fill="#C7171E" transform="translate(54,159)"/>
<path d="M0 0 C0.33 0.66 0.66 1.32 1 2 C1.99 2 2.98 2 4 2 C4 4.97 4 7.94 4 11 C3.67 11 3.34 11 3 11 C3 8.69 3 6.38 3 4 C2.34 4 1.68 4 1 4 C1 4.66 1 5.32 1 6 C0.34 6 -0.32 6 -1 6 C-1 5.34 -1 4.68 -1 4 C-2.32 4 -3.64 4 -5 4 C-5 3.34 -5 2.68 -5 2 C-3.35 2 -1.7 2 0 2 C0 1.34 0 0.68 0 0 Z " fill="#BF1F1E" transform="translate(87,157)"/>
<path d="M0 0 C2.31 0.33 4.62 0.66 7 1 C7 2.32 7 3.64 7 5 C5.35 5.33 3.7 5.66 2 6 C1.67 5.01 1.34 4.02 1 3 C1.33 2.67 1.66 2.34 2 2 C1.34 1.34 0.68 0.68 0 0 Z " fill="#F1FBF9" transform="translate(115,147)"/>
<path d="M0 0 C1.58624235 0.42683239 3.1689098 0.86696158 4.75 1.3125 C6.07257813 1.67794922 6.07257813 1.67794922 7.421875 2.05078125 C10.05772505 3.02125331 11.85407326 4.21005644 14 6 C9.37536203 6.43355981 5.02603834 5.28581149 1 3 C0.67 2.01 0.34 1.02 0 0 Z " fill="#FEDAD4" transform="translate(138,154)"/>
<path d="M0 0 C6.57695407 -0.37228042 6.57695407 -0.37228042 8.5625 1.375 C9.036875 1.91125 9.51125 2.4475 10 3 C13.10007201 4.20049407 13.10007201 4.20049407 16 5 C16 5.66 16 6.32 16 7 C10.36691325 5.56176509 5.26322777 3.45855991 0 1 C0 0.67 0 0.34 0 0 Z " fill="#FCD6D0" transform="translate(0,104)"/>
<path d="M0 0 C0 1.65 0 3.3 0 5 C-2.31 4.67 -4.62 4.34 -7 4 C-7 4.66 -7 5.32 -7 6 C-8.98 6.66 -10.96 7.32 -13 8 C-13 7.34 -13 6.68 -13 6 C-11.21118264 4.99491199 -9.41885304 3.99607264 -7.625 3 C-6.62726562 2.443125 -5.62953125 1.88625 -4.6015625 1.3125 C-2 0 -2 0 0 0 Z " fill="#D01E21" transform="translate(32,79)"/>
<path d="M0 0 C0.33 0 0.66 0 1 0 C2.23615622 5.09914442 2.67479795 9.97560615 1 15 C0.34 15 -0.32 15 -1 15 C-1.09038099 9.84828377 -0.84681133 5.08086796 0 0 Z " fill="#FACCC8" transform="translate(169,75)"/>
<path d="M0 0 C0 0.66 0 1.32 0 2 C-0.969375 2.45375 -1.93875 2.9075 -2.9375 3.375 C-6.07079582 4.65786221 -6.07079582 4.65786221 -7 7 C-9.64860427 7.59355614 -12.29197322 7.74209269 -15 8 C-11.0826156 4.57228865 -5.47848189 0 0 0 Z " fill="#D11A1C" transform="translate(172,5)"/>
<path d="M0 0 C-0.33 3.96 -0.66 7.92 -1 12 C-1.33 12 -1.66 12 -2 12 C-2 10.02 -2 8.04 -2 6 C-4.97 5.505 -4.97 5.505 -8 5 C-1.40909091 0 -1.40909091 0 0 0 Z " fill="#D6151A" transform="translate(180,0)"/>
<path d="M0 0 C0.33 0 0.66 0 1 0 C1 3.63 1 7.26 1 11 C1.928125 10.67 2.85625 10.34 3.8125 10 C7 9 7 9 10 9 C10 9.66 10 10.32 10 11 C7.11788698 11.96070434 5.30149956 12.10581883 2.3125 12.0625 C1.10013672 12.04896484 1.10013672 12.04896484 -0.13671875 12.03515625 C-1.05904297 12.01775391 -1.05904297 12.01775391 -2 12 C-1.67 11.34 -1.34 10.68 -1 10 C-0.77377919 8.29636178 -0.59111527 6.58671299 -0.4375 4.875 C-0.35371094 3.96492187 -0.26992188 3.05484375 -0.18359375 2.1171875 C-0.12300781 1.41851562 -0.06242187 0.71984375 0 0 Z " fill="#CC3431" transform="translate(32,157)"/>
<path d="M0 0 C0.33 1.32 0.66 2.64 1 4 C4.0745356 3.2236068 4.0745356 3.2236068 6 1 C5.979375 1.928125 5.95875 2.85625 5.9375 3.8125 C5.84230396 7.02286011 5.84230396 7.02286011 7 10 C6.01 9.67 5.02 9.34 4 9 C3.3125 6.9375 3.3125 6.9375 3 5 C2.34 5 1.68 5 1 5 C1 6.65 1 8.3 1 10 C0.67 10 0.34 10 0 10 C0 6.7 0 3.4 0 0 Z " fill="#FED7D4" transform="translate(43,158)"/>
<path d="M0 0 C0.33 1.32 0.66 2.64 1 4 C-1.67235841 7.13047699 -4.64019009 9.63568932 -8 12 C-8.66 11.67 -9.32 11.34 -10 11 C-6.7 7.37 -3.4 3.74 0 0 Z " fill="#FCD9D5" transform="translate(81,112)"/>
<path d="M0 0 C0.33 0.99 0.66 1.98 1 3 C-6.28571429 7.57142857 -6.28571429 7.57142857 -11 7 C-7.53258866 4.04250209 -4.13126473 1.92151848 0 0 Z " fill="#D31A22" transform="translate(149,16)"/>
<path d="M0 0 C0.33 0.99 0.66 1.98 1 3 C0.03542166 4.35917857 -0.96854629 5.69084721 -2 7 C-2.70514846 9.14733927 -2.70514846 9.14733927 -3 11 C-1.68 11 -0.36 11 1 11 C1 11.66 1 12.32 1 13 C-1.31 12.34 -3.62 11.68 -6 11 C-4.54955729 6.89041233 -2.48889248 3.56741255 0 0 Z " fill="#C32226" transform="translate(94,122)"/>
<path d="M0 0 C0.33 0.99 0.66 1.98 1 3 C-3.21737229 5.25930658 -7.32956904 6.09186065 -12 7 C-8.18765077 3.6497537 -4.66714289 1.83025211 0 0 Z " fill="#D42226" transform="translate(95,45)"/>
<path d="M0 0 C0.66 0.33 1.32 0.66 2 1 C-0.97 4.3 -3.94 7.6 -7 11 C-7.33 9.68 -7.66 8.36 -8 7 C-7.01 6.34 -6.02 5.68 -5 5 C-4.67 4.01 -4.34 3.02 -4 2 C-2.0625 0.75 -2.0625 0.75 0 0 Z " fill="#CB191C" transform="translate(145,40)"/>
<path d="M0 0 C2.32590854 3.63423209 2.16265833 6.77088331 2 11 C1.67 11 1.34 11 1 11 C1 9.35 1 7.7 1 6 C0.34 6 -0.32 6 -1 6 C-1.33 7.65 -1.66 9.3 -2 11 C-2.95465783 8.83032311 -3.14401212 7.43671207 -2.3984375 5.17578125 C-1.64129615 3.4315257 -0.82390802 1.71372869 0 0 Z " fill="#FED4C3" transform="translate(19,157)"/>
<path d="M0 0 C4.29 0 8.58 0 13 0 C12.01 0.33 11.02 0.66 10 1 C10 3.97 10 6.94 10 10 C9.67 10 9.34 10 9 10 C8.814375 8.88625 8.62875 7.7725 8.4375 6.625 C7.963125 5.42875 7.48875 4.2325 7 3 C3.48599332 1.45913678 3.48599332 1.45913678 0 1 C0 0.67 0 0.34 0 0 Z " fill="#BA1515" transform="translate(32,156)"/>
<path d="M0 0 C1.98 0.66 3.96 1.32 6 2 C3.25 6.875 3.25 6.875 1 8 C0.67 5.36 0.34 2.72 0 0 Z " fill="#E21417" transform="translate(73,112)"/>
<path d="M0 0 C-4.48074195 3.36055646 -7.60550707 3.27429625 -13 3 C-12.67 2.34 -12.34 1.68 -12 1 C-4.35711773 -1.38056989 -4.35711773 -1.38056989 0 0 Z " fill="#F7EEE4" transform="translate(24,83)"/>
<path d="M0 0 C-1.43011973 0.86646667 -2.86940619 1.71781829 -4.3125 2.5625 C-5.51326172 3.27599609 -5.51326172 3.27599609 -6.73828125 4.00390625 C-9 5 -9 5 -12 4 C-11.505 3.525625 -11.01 3.05125 -10.5 2.5625 C-8.88457803 1.24076302 -8.88457803 1.24076302 -9 0 C-3.375 -1.125 -3.375 -1.125 0 0 Z " fill="#FBD7D3" transform="translate(179,1)"/>
<path d="M0 0 C0 1.98 0 3.96 0 6 C-1.65 6 -3.3 6 -5 6 C-4.625 3.5625 -4.625 3.5625 -4 1 C-2 0 -2 0 0 0 Z " fill="#EB0E15" transform="translate(69,160)"/>
<path d="M0 0 C0.99 0 1.98 0 3 0 C4.125 4.75 4.125 4.75 3 7 C2.01 7 1.02 7 0 7 C0 4.69 0 2.38 0 0 Z " fill="#CB212F" transform="translate(35,159)"/>
<path d="M0 0 C3.63 1.32 7.26 2.64 11 4 C10.01 4.66 9.02 5.32 8 6 C4.3125 5.125 4.3125 5.125 1 4 C0.67 2.68 0.34 1.36 0 0 Z " fill="#CE1F1A" transform="translate(106,149)"/>
<path d="M0 0 C2.875 -0.125 2.875 -0.125 6 0 C6.66 0.66 7.32 1.32 8 2 C4.7 2.66 1.4 3.32 -2 4 C-1.34 2.68 -0.68 1.36 0 0 Z " fill="#EFFAF8" transform="translate(59,56)"/>
<path d="M0 0 C2.375 -0.1875 2.375 -0.1875 5 0 C5.66 0.99 6.32 1.98 7 3 C6.34 4.32 5.68 5.64 5 7 C4.67 5.68 4.34 4.36 4 3 C2.02 3.33 0.04 3.66 -2 4 C-1.34 2.68 -0.68 1.36 0 0 Z " fill="#FBB9B2" transform="translate(53,157)"/>
<path d="M0 0 C0.99 0 1.98 0 3 0 C3 0.66 3 1.32 3 2 C3.66 2.33 4.32 2.66 5 3 C4.01 4.485 4.01 4.485 3 6 C2.34 6 1.68 6 1 6 C1 5.34 1 4.68 1 4 C0.01 4 -0.98 4 -2 4 C-2 3.34 -2 2.68 -2 2 C-1.34 2 -0.68 2 0 2 C0 1.34 0 0.68 0 0 Z " fill="#FCF8F7" transform="translate(98,138)"/>
<path d="M0 0 C1.32 0 2.64 0 4 0 C3.67 0.99 3.34 1.98 3 3 C3.33 3.99 3.66 4.98 4 6 C1.03 5.505 1.03 5.505 -2 5 C-2 4.34 -2 3.68 -2 3 C-1.34 3 -0.68 3 0 3 C0 2.01 0 1.02 0 0 Z " fill="#E2120B" transform="translate(28,102)"/>
<path d="M0 0 C0.66 0.33 1.32 0.66 2 1 C0.02 3.97 -1.96 6.94 -4 10 C-5 6 -5 6 -4.00390625 4.296875 C-2.66927083 2.86458333 -1.33463542 1.43229167 0 0 Z " fill="#FCE4DF" transform="translate(116,86)"/>
<path d="M0 0 C0.556875 0.391875 1.11375 0.78375 1.6875 1.1875 C-5.0625 5.1875 -5.0625 5.1875 -7.3125 5.1875 C-7.3125 4.1975 -7.3125 3.2075 -7.3125 2.1875 C-3.20088417 -1.12463498 -3.20088417 -1.12463498 0 0 Z " fill="#FDDFD9" transform="translate(132.3125,23.8125)"/>
<path d="M0 0 C0.66 0 1.32 0 2 0 C1.79375 0.886875 1.5875 1.77375 1.375 2.6875 C0.97449761 6.2252711 1.43316484 7.86632967 3 11 C2.34 11 1.68 11 1 11 C-2.09917355 6.8677686 -2.09917355 6.8677686 -1.75 3.8125 C-1.21535034 2.52043 -0.62534713 1.25069425 0 0 Z " fill="#F9C0BA" transform="translate(76,157)"/>
<path d="M0 0 C1.43931117 0.45261358 2.87638999 0.91232979 4.3125 1.375 C5.11300781 1.63023438 5.91351563 1.88546875 6.73828125 2.1484375 C9 3 9 3 12 5 C10.68 5.33 9.36 5.66 8 6 C8 5.34 8 4.68 8 4 C7.05125 3.855625 6.1025 3.71125 5.125 3.5625 C2 3 2 3 0 2 C0 1.34 0 0.68 0 0 Z " fill="#FDD9D3" transform="translate(31,109)"/>
<path d="M0 0 C0.99 0.33 1.98 0.66 3 1 C1.02 3.31 -0.96 5.62 -3 8 C-3.33 7.01 -3.66 6.02 -4 5 C-3.34 5 -2.68 5 -2 5 C-2 3.68 -2 2.36 -2 1 C-1.34 0.67 -0.68 0.34 0 0 Z " fill="#DC1F25" transform="translate(109,78)"/>
<path d="M0 0 C0.99 0.33 1.98 0.66 3 1 C1.02 3.31 -0.96 5.62 -3 8 C-3.66 7.34 -4.32 6.68 -5 6 C-3.63016497 2.83884224 -3.0109362 2.0072908 0 0 Z " fill="#E50E14" transform="translate(109,37)"/>
<path d="M0 0 C0.66 0.66 1.32 1.32 2 2 C-4.75 6 -4.75 6 -7 6 C-7 4 -7 4 -5 2 C-5 1.67 -5 1.34 -5 1 C-2.625 0.375 -2.625 0.375 0 0 Z " fill="#F8DFD1" transform="translate(109,35)"/>
<path d="M0 0 C1.98 0.99 1.98 0.99 4 2 C4 2.66 4 3.32 4 4 C4.66 4 5.32 4 6 4 C5.67 3.01 5.34 2.02 5 1 C5.66 1 6.32 1 7 1 C7 1.99 7 2.98 7 4 C7.66 4.33 8.32 4.66 9 5 C7.02 5 5.04 5 3 5 C3 4.34 3 3.68 3 3 C2.01 3.33 1.02 3.66 0 4 C0 2.68 0 1.36 0 0 Z " fill="#BD2F30" transform="translate(73,164)"/>
<path d="M0 0 C5.63470383 -0.5497272 8.38987758 1.04952165 13 4 C12.67 4.66 12.34 5.32 12 6 C8.04 4.35 4.08 2.7 0 1 C0 0.67 0 0.34 0 0 Z " fill="#D82426" transform="translate(109,141)"/>
<path d="M0 0 C0.66 0.66 1.32 1.32 2 2 C0.69593116 4.01920337 -0.63823419 6.01924973 -2 8 C-2.33 8 -2.66 8 -3 8 C-3.1875 5.125 -3.1875 5.125 -3 2 C-2.01 1.34 -1.02 0.68 0 0 Z " fill="#FEDCD4" transform="translate(93,120)"/>
<path d="M0 0 C0.66 0.33 1.32 0.66 2 1 C0.35 3.64 -1.3 6.28 -3 9 C-3.66 7.68 -4.32 6.36 -5 5 C-4.01 4.67 -3.02 4.34 -2 4 C-0.79117904 1.99983534 -0.79117904 1.99983534 0 0 Z " fill="#FCD2D4" transform="translate(105,103)"/>
<path d="M0 0 C0.66 0.33 1.32 0.66 2 1 C1.01 2.175625 1.01 2.175625 0 3.375 C-2.20201441 5.71512812 -2.20201441 5.71512812 -2 8 C-3.32 8.33 -4.64 8.66 -6 9 C-4.83857315 4.64464931 -3.92300495 2.35380297 0 0 Z " fill="#F6F8EF" transform="translate(117,75)"/>
<path d="M0 0 C-3.41016497 2.86453858 -6.90694544 4.34703566 -11 6 C-10.67 5.01 -10.34 4.02 -10 3 C-9.01 3 -8.02 3 -7 3 C-7 2.34 -7 1.68 -7 1 C-4.53721199 -0.231394 -2.7204945 -0.07159196 0 0 Z " fill="#FEDDDB" transform="translate(70,58)"/>
<path d="M0 0 C0 3.99904969 -1.72586967 5.80200422 -4 9 C-4.99 8.34 -5.98 7.68 -7 7 C-4.69 4.69 -2.38 2.38 0 0 Z " fill="#FDC3B3" transform="translate(148,39)"/>
<path d="M0 0 C0.66 0.33 1.32 0.66 2 1 C1 2.9375 1 2.9375 -1 5 C-3.69924572 5.66549451 -6.20631637 5.81680763 -9 6 C-6.12050853 3.76039553 -3.23257974 1.70135776 0 0 Z " fill="#CC282B" transform="translate(120,31)"/>
<path d="M0 0 C5.41538462 -0.36923077 5.41538462 -0.36923077 8.375 1.5 C8.91125 1.995 9.4475 2.49 10 3 C8.375 3.6875 8.375 3.6875 6 4 C2.75 2.5625 2.75 2.5625 0 1 C0 0.67 0 0.34 0 0 Z " fill="#FEEBF0" transform="translate(148,160)"/>
<path d="M0 0 C0.598125 0.165 1.19625 0.33 1.8125 0.5 C4.11344336 1.1114124 4.11344336 1.1114124 7 1 C6.01 3.31 5.02 5.62 4 8 C2.22293791 5.33440687 1.12451727 2.9719385 0 0 Z " fill="#CC2725" transform="translate(13,156)"/>
<path d="M0 0 C0.6875 1.8125 0.6875 1.8125 1 4 C-0.4375 5.75 -0.4375 5.75 -2 7 C-2.99 6.67 -3.98 6.34 -5 6 C-3.35 4.02 -1.7 2.04 0 0 Z " fill="#FAECDF" transform="translate(87,106)"/>
<path d="M0 0 C0.99 0.66 1.98 1.32 3 2 C3 2.99 3 3.98 3 5 C1.35 4.67 -0.3 4.34 -2 4 C-2.33 3.01 -2.66 2.02 -3 1 C-2.01 0.67 -1.02 0.34 0 0 Z " fill="#FDE9E8" transform="translate(19,108)"/>
<path d="M0 0 C0.33 0.66 0.66 1.32 1 2 C-1 5 -1 5 -4.125 5.6875 C-5.07375 5.790625 -6.0225 5.89375 -7 6 C-4.9859524 2.9789286 -3.36720387 1.39332574 0 0 Z " fill="#FADFD5" transform="translate(95,99)"/>
<path d="M0 0 C0.66 0 1.32 0 2 0 C2.625 3.375 2.625 3.375 3 7 C2.34 7.66 1.68 8.32 1 9 C0.63877119 7.68942607 0.28619689 6.37646376 -0.0625 5.0625 C-0.35833984 3.96615234 -0.35833984 3.96615234 -0.66015625 2.84765625 C-0.77230469 2.23792969 -0.88445312 1.62820312 -1 1 C-0.67 0.67 -0.34 0.34 0 0 Z " fill="#E1110F" transform="translate(140,53)"/>
<path d="M0 0 C0.99 0 1.98 0 3 0 C3 2.64 3 5.28 3 8 C2.34 8 1.68 8 1 8 C1 6.02 1 4.04 1 2 C0.34 1.67 -0.32 1.34 -1 1 C-0.67 0.67 -0.34 0.34 0 0 Z " fill="#ED0703" transform="translate(73,142)"/>
<path d="M0 0 C5.75 1.75 5.75 1.75 8 4 C6.02 4.33 4.04 4.66 2 5 C1.34 3.35 0.68 1.7 0 0 Z " fill="#FEDED5" transform="translate(22,105)"/>
<path d="M0 0 C1.32 0.99 2.64 1.98 4 3 C2.35 4.98 0.7 6.96 -1 9 C-1.33 8.01 -1.66 7.02 -2 6 C-1.34 6 -0.68 6 0 6 C0 4.02 0 2.04 0 0 Z " fill="#E0121A" transform="translate(119,64)"/>
<path d="M0 0 C0.556875 0.226875 1.11375 0.45375 1.6875 0.6875 C-5.0625 4.6875 -5.0625 4.6875 -7.3125 4.6875 C-7.3125 4.0275 -7.3125 3.3675 -7.3125 2.6875 C-3.15982824 -0.42700382 -3.15982824 -0.42700382 0 0 Z " fill="#FEDFDE" transform="translate(118.3125,31.3125)"/>
<path d="M0 0 C0 1.65 0 3.3 0 5 C-1.65 5 -3.3 5 -5 5 C-5 4.01 -5 3.02 -5 2 C-2 0 -2 0 0 0 Z " fill="#EE0508" transform="translate(140,23)"/>
<path d="M0 0 C1.32 0.66 2.64 1.32 4 2 C-1.75 5 -1.75 5 -4 5 C-4 4.34 -4 3.68 -4 3 C-2 1.375 -2 1.375 0 0 Z " fill="#FDDFD4" transform="translate(94,42)"/>
<path d="M0 0 C0.99 0 1.98 0 3 0 C2.37240135 2.92879371 1.41377341 5.36095629 0 8 C-0.66 7.67 -1.32 7.34 -2 7 C-1.125 2.25 -1.125 2.25 0 0 Z " fill="#E60F07" transform="translate(152,33)"/>
<path d="M0 0 C3.3 0.33 6.6 0.66 10 1 C10 1.66 10 2.32 10 3 C6.14354879 3.22036864 3.50776784 2.60355101 0 1 C0 0.67 0 0.34 0 0 Z " fill="#E50906" transform="translate(48,169)"/>
<path d="M0 0 C2.00720923 0.28674418 4.0085944 0.61866701 6 1 C5.34 2.65 4.68 4.3 4 6 C3.34 5.01 2.68 4.02 2 3 C1.01 2.34 0.02 1.68 -1 1 C-0.67 0.67 -0.34 0.34 0 0 Z " fill="#DF181A" transform="translate(46,155)"/>
<path d="M0 0 C2.3431213 0.25561323 4.67843403 0.59270772 7 1 C7.33 1.66 7.66 2.32 8 3 C5.36 2.67 2.72 2.34 0 2 C0 1.34 0 0.68 0 0 Z " fill="#F2FBFC" transform="translate(129,153)"/>
<path d="M0 0 C6.0546875 -0.1953125 6.0546875 -0.1953125 8 0 C8.66 0.66 9.32 1.32 10 2 C6.18510326 3.46726798 3.70988378 2.43336419 0 1 C0 0.67 0 0.34 0 0 Z " fill="#F30409" transform="translate(101,136)"/>
<path d="M0 0 C0 0.66 0 1.32 0 2 C-2.31 2.33 -4.62 2.66 -7 3 C-7.33 2.34 -7.66 1.68 -8 1 C-5.10765685 0.17361624 -3.11257569 0 0 0 Z " fill="#EBFDF9" transform="translate(58,121)"/>
<path d="M0 0 C0.66 0 1.32 0 2 0 C2.125 2.875 2.125 2.875 2 6 C1.34 6.66 0.68 7.32 0 8 C-0.98120464 4.94736336 -0.98120464 3.05263664 0 0 Z " fill="#EC0611" transform="translate(163,100)"/>
<path d="M0 0 C0.33 0.66 0.66 1.32 1 2 C0.0625 4.625 0.0625 4.625 -1 7 C-1.99 7 -2.98 7 -4 7 C-2.92598892 4.08482708 -2.22189824 2.22189824 0 0 Z " fill="#D41E1E" transform="translate(119,85)"/>
<path d="M0 0 C-3.96 1.98 -3.96 1.98 -8 4 C-5.33333333 -1.33333333 -5.33333333 -1.33333333 0 0 Z " fill="#FED9D6" transform="translate(88,49)"/>
<path d="M0 0 C0 0.99 0 1.98 0 3 C-3 5 -3 5 -6 5 C-5.67 4.01 -5.34 3.02 -5 2 C-4.34 2.33 -3.68 2.66 -3 3 C-3 2.34 -3 1.68 -3 1 C-2.01 0.67 -1.02 0.34 0 0 Z " fill="#EC3D39" transform="translate(151,35)"/>
<path d="M0 0 C-2.38573379 1.89213369 -4.07175348 3.02391783 -7 4 C-6.6875 2.0625 -6.6875 2.0625 -6 0 C-3 -1 -3 -1 0 0 Z " fill="#FCDACD" transform="translate(142,20)"/>
<path d="M0 0 C0.33 0 0.66 0 1 0 C1.02698189 1.62490954 1.04638757 3.24994633 1.0625 4.875 C1.07410156 5.77992187 1.08570313 6.68484375 1.09765625 7.6171875 C1 10 1 10 0 12 C-0.66 12 -1.32 12 -2 12 C-1.34 8.04 -0.68 4.08 0 0 Z " fill="#FFF2E7" transform="translate(179,13)"/>
<path d="M0 0 C1.98 0 3.96 0 6 0 C3.37801226 2.15377564 1.35595828 3.40072174 -2 4 C-1.34 2.68 -0.68 1.36 0 0 Z " fill="#FEDED9" transform="translate(162,6)"/>
</svg>
